<svg version="1.1" id="Layer_1" xmlns="http://www.w3.org/2000/svg" xmlns:xlink="http://www.w3.org/1999/xlink" x="0px" y="0px"
	 width="100%" viewBox="0 0 112 112" enable-background="new 0 0 112 112" xml:space="preserve">
<path fill="#000000" opacity="1.000000" stroke="none" 
	d="
M1.000001,47.000000 
	C1.000000,31.688053 1.000000,16.376106 1.000000,1.032079 
	C38.259853,1.032079 75.519745,1.032079 112.889816,1.032079 
	C112.889816,38.333168 112.889816,75.666534 112.883545,112.999947 
	C98.563957,113.000000 84.250641,113.000000 69.472702,112.560425 
	C69.352577,107.779129 69.697067,103.437401 70.346649,98.976685 
	C72.114403,97.276276 73.577065,95.694847 75.368927,93.967712 
	C79.418404,87.734283 82.580414,81.466652 82.373116,73.892807 
	C82.599037,72.366821 82.531761,70.966782 82.707176,69.217728 
	C82.906769,66.577835 82.863655,64.286942 82.895432,61.608238 
	C82.966072,59.920120 83.044258,58.608620 82.870644,57.331341 
	C82.843933,57.134850 81.658630,57.095840 81.041779,56.594055 
	C80.393051,53.861210 79.711700,51.518314 79.351532,48.994949 
	C77.728325,45.545406 75.783943,42.276329 73.912994,38.601559 
	C73.705421,35.814960 73.424423,33.434052 73.095825,31.051796 
	C73.048210,31.050449 73.053726,31.145548 73.382332,31.218287 
	C73.935501,31.761095 74.160072,32.231163 74.384636,32.701233 
	C74.608994,32.632881 74.833344,32.564526 75.057701,32.496174 
	C75.057701,29.674946 75.057701,26.853718 75.377899,23.874891 
	C76.180878,22.710150 76.663658,21.703009 77.146431,20.695868 
	C76.932884,20.227724 76.719337,19.759579 76.505791,19.291435 
	C74.786850,19.900282 72.697716,20.086323 71.422920,21.202456 
	C68.393700,23.854652 65.750023,26.947193 62.598442,29.786575 
	C59.492855,28.861090 56.739384,28.010832 53.649391,26.991978 
	C51.892796,26.515667 50.472721,26.207949 48.876228,25.577126 
	C44.807846,24.134314 40.915874,23.014608 36.870499,21.555973 
	C35.851650,18.797302 34.986214,16.377562 34.067436,13.571255 
	C33.205109,10.838389 32.396122,8.492093 31.578104,6.119592 
	C29.935759,6.042063 28.502234,5.974392 27.081429,5.935907 
	C27.094152,5.965093 27.137381,5.918411 27.061707,5.597234 
	C26.038879,5.511546 25.091726,5.747035 24.014982,6.259914 
	C23.244135,7.316513 22.602877,8.095722 21.663513,9.049292 
	C20.976652,10.489271 20.587896,11.754889 20.051291,13.315380 
	C19.574734,14.395348 19.246027,15.180444 18.619549,16.126598 
	C18.174801,17.173294 18.027822,18.058933 17.552505,19.181259 
	C17.202194,21.601168 17.180223,23.784389 17.110188,26.284622 
	C17.401890,27.062542 17.741659,27.523447 18.107391,28.236233 
	C18.084164,28.649603 18.034973,28.811089 17.626644,28.980473 
	C14.550302,32.311916 11.833097,35.635460 8.787193,39.032181 
	C7.970359,40.017738 7.482223,40.930130 6.677023,41.996803 
	C4.573307,43.767391 2.786654,45.383698 1.000001,47.000000 
z"/>
<path fill="#C6B078" opacity="1.000000" stroke="none" 
	d="
M1.000000,92.000000 
	C1.000000,91.555664 1.000000,91.111328 1.359531,90.381622 
	C7.857044,92.592224 8.194985,92.411522 9.469049,87.438408 
	C9.824718,86.050095 10.994768,84.870415 11.742018,83.673836 
	C12.133693,80.592888 12.550799,77.311882 13.296360,73.979843 
	C14.526564,73.779526 15.428315,73.630249 16.607927,73.434982 
	C16.050533,77.543175 18.098972,80.539352 18.956432,83.660255 
	C20.159195,88.037964 22.581991,89.341583 25.590498,91.174171 
	C26.595821,91.786560 27.229809,93.008560 27.692348,93.968689 
	C26.896170,93.996307 26.441183,94.007141 25.639519,94.026184 
	C22.063280,94.406982 23.359203,96.345131 23.537346,98.005173 
	C21.904486,97.646797 20.659651,97.121628 19.383745,97.030228 
	C18.323124,96.954254 17.225967,97.388290 16.144997,97.596413 
	C17.007202,98.228851 17.869408,98.861282 19.009573,99.697609 
	C17.949194,100.498665 16.966970,101.240685 15.605009,101.987762 
	C13.326845,101.992813 11.428417,101.992813 8.981360,101.992813 
	C10.316742,100.195305 11.107694,99.130630 12.681564,97.012093 
	C9.131283,96.598869 6.566168,96.300301 3.770411,95.779785 
	C2.693180,94.371880 1.846591,93.185944 1.000000,92.000000 
M14.481803,95.231644 
	C14.428628,95.183388 14.375453,95.135132 14.481803,95.231644 
z"/>
<path fill="#BF9746" opacity="1.000000" stroke="none" 
	d="
M0.999999,74.000000 
	C1.000000,68.311958 1.000000,62.623920 1.253042,56.257561 
	C3.958994,54.074982 6.411906,52.570721 8.904929,51.301014 
	C8.945042,51.535572 9.007872,52.007980 9.000828,52.405533 
	C9.294580,54.530293 9.595374,56.257492 9.898218,58.360115 
	C9.907074,59.486328 9.913880,60.237129 9.584408,61.002335 
	C8.520874,61.691048 7.793618,62.365353 7.087280,63.351715 
	C7.407791,64.441391 7.707383,65.219002 7.859400,66.329956 
	C8.004293,68.870865 8.147256,71.111061 8.620303,73.279251 
	C9.610537,77.817932 8.212269,80.311157 3.891746,80.768036 
	C2.817566,78.342430 1.908782,76.171219 0.999999,74.000000 
z"/>
<path fill="#C8B583" opacity="1.000000" stroke="none" 
	d="
M15.984747,101.982704 
	C16.966970,101.240685 17.949194,100.498665 19.009573,99.697609 
	C17.869408,98.861282 17.007202,98.228851 16.144997,97.596413 
	C17.225967,97.388290 18.323124,96.954254 19.383745,97.030228 
	C20.659651,97.121628 21.904486,97.646797 23.703329,98.274567 
	C25.171865,99.698700 26.099844,100.832443 27.083248,102.277908 
	C27.767881,103.050171 28.397091,103.510712 29.014914,103.985733 
	C29.003525,104.000206 29.033138,103.974136 28.975967,104.290482 
	C28.211203,105.740166 27.503611,106.873497 26.392525,108.653099 
	C28.353445,108.375046 29.675425,108.187592 30.992615,108.416771 
	C30.991884,110.222275 30.995943,111.611137 31.000000,113.000000 
	C25.977907,113.000000 20.955816,113.000000 15.634555,112.775848 
	C15.634720,111.914162 15.934053,111.276611 16.233387,110.639069 
	C15.488938,110.759377 14.744489,110.879692 14.013290,110.630356 
	C14.572439,104.648193 18.264336,106.738892 21.534849,107.797806 
	C21.702377,107.289780 21.869905,106.781754 22.037436,106.273727 
	C20.019873,104.843384 18.002310,103.413040 15.984747,101.982704 
z"/>
<path fill="#CAB887" opacity="1.000000" stroke="none" 
	d="
M15.605011,101.987762 
	C18.002310,103.413040 20.019873,104.843384 22.037436,106.273727 
	C21.869905,106.781754 21.702377,107.289780 21.534849,107.797806 
	C18.264336,106.738892 14.572439,104.648193 13.668274,110.631462 
	C11.873227,110.665260 10.436447,110.328308 9.230884,109.742386 
	C8.729384,108.343498 8.243505,106.604446 7.210365,106.171600 
	C5.310171,105.375481 3.087984,105.347900 1.000000,105.000000 
	C1.000000,103.933327 1.000000,102.866661 1.356760,101.390839 
	C5.646169,100.777901 4.459970,98.222786 4.001053,96.001740 
	C6.566168,96.300301 9.131283,96.598869 12.681564,97.012093 
	C11.107694,99.130630 10.316742,100.195305 8.981360,101.992813 
	C11.428417,101.992813 13.326845,101.992813 15.605011,101.987762 
z"/>
<path fill="#C5A660" opacity="1.000000" stroke="none" 
	d="
M4.057141,81.022430 
	C8.212269,80.311157 9.610537,77.817932 8.620303,73.279251 
	C8.147256,71.111061 8.004293,68.870865 8.110097,66.330048 
	C8.675553,65.996483 8.842736,65.996140 9.148468,66.319092 
	C10.513983,69.105225 11.740946,71.568047 12.967909,74.030876 
	C12.550799,77.311882 12.133693,80.592888 11.742018,83.673836 
	C10.994768,84.870415 9.824718,86.050095 9.469049,87.438408 
	C8.194985,92.411522 7.857044,92.592224 1.359531,90.048126 
	C1.000000,88.933327 1.000000,87.866661 1.369724,86.399254 
	C2.927205,85.719223 4.114963,85.439934 5.302720,85.160645 
	C4.907008,84.753418 4.511297,84.346199 4.006462,83.703209 
	C3.950605,82.652435 4.003873,81.837433 4.057141,81.022430 
z"/>
<path fill="#CFA858" opacity="1.000000" stroke="none" 
	d="
M8.864817,51.066456 
	C6.411906,52.570721 3.958994,54.074982 1.253042,55.789623 
	C1.000000,53.299988 1.000000,50.599972 1.000001,47.449982 
	C2.786654,45.383698 4.573307,43.767391 6.998538,42.151661 
	C9.428443,43.155155 11.219769,44.158073 12.835322,45.430462 
	C11.394639,47.488773 10.129727,49.277615 8.864817,51.066456 
z"/>
<path fill="#D3BA7E" opacity="1.000000" stroke="none" 
	d="
M57.000000,113.000000 
	C55.611004,113.000000 54.222004,113.000000 52.380836,112.692459 
	C52.525303,111.299988 52.984203,110.102776 53.753731,109.158783 
	C54.697887,108.000587 55.901718,107.054070 56.936272,105.637924 
	C56.585091,103.504349 56.290932,101.748894 55.998489,99.745132 
	C56.000202,99.496826 56.006008,99.000229 56.379799,99.000114 
	C57.501266,98.999748 58.248947,98.999504 59.000320,99.380440 
	C60.002064,100.840065 61.000111,101.918510 61.914658,103.341843 
	C61.220257,105.458138 60.609367,107.229523 59.713135,109.161003 
	C58.618530,110.547394 57.809269,111.773697 57.000000,113.000000 
z"/>
<path fill="#C8AC69" opacity="1.000000" stroke="none" 
	d="
M56.993290,106.016045 
	C55.901718,107.054070 54.697887,108.000587 53.753731,109.158783 
	C52.984203,110.102776 52.525303,111.299988 51.964333,112.692459 
	C48.638714,113.000000 45.277424,113.000000 41.541374,112.676498 
	C42.446053,111.573334 43.725491,110.793663 45.364464,109.954147 
	C47.143681,108.619987 48.563370,107.345673 49.990837,105.808273 
	C49.998550,105.369728 49.998474,105.194267 50.399704,105.015549 
	C52.865097,105.346878 54.929195,105.681458 56.993290,106.016045 
z"/>
<path fill="#BCA161" opacity="1.000000" stroke="none" 
	d="
M45.004929,110.013992 
	C43.725491,110.793663 42.446053,111.573334 41.083305,112.676498 
	C40.555553,113.000000 40.111111,113.000000 39.320770,112.676300 
	C38.708759,111.796509 38.442650,111.240410 38.176537,110.684311 
	C37.784359,111.456207 37.392178,112.228104 37.000000,113.000000 
	C35.285641,113.000000 33.571281,113.000000 31.428463,113.000000 
	C30.995943,111.611137 30.991884,110.222275 31.305573,108.376938 
	C32.400139,107.289986 33.176956,106.659500 34.212532,106.023560 
	C34.643791,106.014755 34.816299,106.011414 35.270836,106.248169 
	C37.032619,106.668266 38.512371,106.848267 40.006584,107.362747 
	C41.682343,108.469475 43.343636,109.241730 45.004929,110.013992 
z"/>
<path fill="#CFC093" opacity="1.000000" stroke="none" 
	d="
M1.000000,105.494736 
	C3.087984,105.347900 5.310171,105.375481 7.210365,106.171600 
	C8.243505,106.604446 8.729384,108.343498 8.981835,109.514526 
	C4.577040,108.458694 4.772020,110.356384 6.000000,113.000000 
	C4.398595,113.000000 2.797190,113.000000 1.000000,113.000000 
	C1.000000,110.664818 1.000000,108.327141 1.000000,105.494736 
z"/>
<path fill="#E4CF97" opacity="1.000000" stroke="none" 
	d="
M70.041557,99.095680 
	C69.697067,103.437401 69.352577,107.779129 69.004044,112.560425 
	C67.611107,113.000000 66.222221,113.000000 64.471985,112.655586 
	C65.072945,110.206360 66.035248,108.101540 67.139870,105.680222 
	C67.190102,103.899368 67.098022,102.435028 67.017502,100.630203 
	C67.685463,99.527367 68.341858,98.764992 69.211014,98.145081 
	C69.629700,98.556915 69.835632,98.826294 70.041557,99.095680 
z"/>
<path fill="#DCC58D" opacity="1.000000" stroke="none" 
	d="
M66.997559,105.996719 
	C66.035248,108.101540 65.072945,110.206360 64.055321,112.655586 
	C61.958332,113.000000 59.916668,113.000000 57.437500,113.000000 
	C57.809269,111.773697 58.618530,110.547394 59.931488,109.364456 
	C62.622635,108.270790 64.810097,107.133751 66.997559,105.996719 
z"/>
<path fill="#CBBA8B" opacity="1.000000" stroke="none" 
	d="
M6.449979,113.000000 
	C4.772020,110.356384 4.577040,108.458694 8.750618,109.763512 
	C10.436447,110.328308 11.873227,110.665260 13.655023,111.001099 
	C14.744489,110.879692 15.488938,110.759377 16.233387,110.639069 
	C15.934053,111.276611 15.634720,111.914162 15.167693,112.775848 
	C12.299986,113.000000 9.599972,113.000000 6.449979,113.000000 
z"/>
<path fill="#B88836" opacity="1.000000" stroke="none" 
	d="
M3.891746,80.768036 
	C4.003873,81.837433 3.950605,82.652435 3.787214,83.862953 
	C2.784728,84.172318 1.892364,84.086159 1.000000,84.000000 
	C1.000000,80.969406 1.000000,77.938812 0.999999,74.454109 
	C1.908782,76.171219 2.817566,78.342430 3.891746,80.768036 
z"/>
<path fill="#CFC093" opacity="1.000000" stroke="none" 
	d="
M3.770412,95.779785 
	C4.459970,98.222786 5.646169,100.777901 1.356760,100.990845 
	C1.000000,98.299988 1.000000,95.599968 1.000000,92.449982 
	C1.846591,93.185944 2.693180,94.371880 3.770412,95.779785 
z"/>
<path fill="#BF9746" opacity="1.000000" stroke="none" 
	d="
M1.000000,84.333328 
	C1.892364,84.086159 2.784728,84.172318 3.896339,84.098724 
	C4.511297,84.346199 4.907008,84.753418 5.302720,85.160645 
	C4.114963,85.439934 2.927205,85.719223 1.369724,85.999260 
	C1.000000,85.555557 1.000000,85.111107 1.000000,84.333328 
z"/>
<path fill="#B89B53" opacity="1.000000" stroke="none" 
	d="
M37.333328,113.000000 
	C37.392178,112.228104 37.784359,111.456207 38.176537,110.684311 
	C38.442650,111.240410 38.708759,111.796509 38.987434,112.676300 
	C38.555553,113.000000 38.111111,113.000000 37.333328,113.000000 
z"/>
<path fill="#1D1B13" opacity="1.000000" stroke="none" 
	d="
M79.030350,49.175415 
	C79.711700,51.518314 80.393051,53.861210 80.976807,56.932667 
	C79.193642,59.935013 77.508064,62.208805 75.519180,64.570236 
	C74.828415,64.816971 74.440964,64.976059 73.758522,65.105499 
	C73.283714,65.157906 73.103905,65.239983 72.566711,65.308678 
	C71.495865,65.315865 70.782417,65.336426 69.726761,65.224983 
	C67.617142,64.386803 65.849716,63.680614 63.963573,62.693573 
	C63.523106,61.717583 63.201366,61.022438 62.906998,59.892052 
	C62.979424,55.587250 63.024471,51.717690 63.311935,47.878716 
	C63.554348,47.909306 64.027588,47.787457 64.451225,47.851685 
	C66.587280,47.881466 68.299706,47.847019 70.426147,47.897102 
	C73.570236,48.379562 76.300293,48.777489 79.030350,49.175415 
M68.760818,51.135223 
	C65.602943,53.090717 67.214615,55.405743 68.457100,57.493065 
	C68.841461,58.138775 70.753647,58.700176 70.830498,58.579124 
	C71.860062,56.957317 73.117371,55.260193 73.337761,53.461651 
	C73.416908,52.815830 70.876701,51.849037 68.760818,51.135223 
z"/>
<path fill="#080705" opacity="1.000000" stroke="none" 
	d="
M13.011094,45.160988 
	C11.219769,44.158073 9.428443,43.155155 7.315601,41.997375 
	C7.482223,40.930130 7.970359,40.017738 9.190237,39.034019 
	C12.304167,39.262005 14.686354,39.561321 17.446884,39.925941 
	C22.545675,40.940689 27.266119,41.890137 32.365707,42.911320 
	C34.169777,42.577133 35.594711,42.171207 37.456093,41.841019 
	C39.963131,41.891850 42.033722,41.866947 44.372650,41.976273 
	C45.130394,42.728882 45.619808,43.347256 45.673031,43.975471 
	C43.492283,43.991169 41.747723,43.997017 39.668831,43.999542 
	C38.888699,43.998299 38.442898,44.000385 37.621170,44.015800 
	C31.694424,45.662193 30.253254,47.680794 31.544277,52.931782 
	C32.397308,56.401314 33.802906,59.734993 34.634239,63.067108 
	C33.260448,62.008636 32.213531,61.012550 31.096800,59.625633 
	C29.705811,55.448021 28.384640,51.661247 26.879471,47.546799 
	C24.485987,46.763840 22.276495,46.308552 19.886303,45.533669 
	C17.474098,45.196381 15.242596,45.178684 13.011094,45.160988 
z"/>
<path fill="#E4DAB0" opacity="1.000000" stroke="none" 
	d="
M82.079910,74.018745 
	C82.580414,81.466652 79.418404,87.734283 75.359818,93.530327 
	C73.937126,90.355476 72.852722,87.472290 71.750824,84.385460 
	C71.733330,84.181808 71.821854,83.782700 72.017944,83.783989 
	C72.313759,83.702965 72.510521,83.593826 72.496460,83.542969 
	C72.434433,83.318596 72.311676,83.111023 72.242615,82.531349 
	C72.235443,81.434219 72.196564,80.703102 72.227936,79.760452 
	C72.298172,79.548904 72.150421,79.127975 72.287781,78.835114 
	C72.620583,77.707993 72.816032,76.873718 73.346054,75.916557 
	C73.759842,73.876396 73.839050,71.959129 74.202415,70.082390 
	C75.324585,70.414787 76.162598,70.706657 77.336670,71.082314 
	C79.141792,72.116982 80.610855,73.067863 82.079910,74.018745 
z"/>
<path fill="#B88333" opacity="1.000000" stroke="none" 
	d="
M17.068541,39.860638 
	C14.686354,39.561321 12.304167,39.262005 9.518936,38.960850 
	C11.833097,35.635460 14.550302,32.311916 17.856720,29.117302 
	C18.930069,29.474724 19.414202,29.703218 20.262171,29.950974 
	C21.727592,29.685904 22.829180,29.401573 24.158281,29.160904 
	C25.248795,29.771675 26.111790,30.338789 27.175489,31.145811 
	C27.951477,31.606287 28.526760,31.826855 28.933754,32.300163 
	C28.143320,33.346195 27.521179,34.139488 26.521076,34.952400 
	C23.118256,36.601562 20.093397,38.231098 17.068541,39.860638 
z"/>
<path fill="#A97D3D" opacity="1.000000" stroke="none" 
	d="
M29.102043,32.047424 
	C28.526760,31.826855 27.951477,31.606287 27.188923,30.930817 
	C27.001654,30.475914 27.010607,30.044777 27.346256,29.981804 
	C27.794519,28.606167 27.907133,27.293503 27.966805,25.744244 
	C27.802343,25.197691 27.628283,24.928114 27.386765,24.407852 
	C27.363691,23.535408 27.345539,22.954031 27.606007,22.268715 
	C28.569443,21.470453 29.254261,20.776134 29.961704,19.746151 
	C30.305740,18.612547 30.627153,17.814610 31.164303,17.194286 
	C31.750170,17.843109 32.120296,18.314316 32.462612,18.750116 
	C33.031693,17.105412 33.576233,15.531616 34.120777,13.957822 
	C34.986214,16.377562 35.851650,18.797302 36.852386,21.927717 
	C36.323177,24.430145 35.658665,26.221897 34.740101,28.233513 
	C32.691380,29.651392 30.896711,30.849409 29.102043,32.047424 
z"/>
<path fill="#CD9D47" opacity="1.000000" stroke="none" 
	d="
M34.994152,28.013649 
	C35.658665,26.221897 36.323177,24.430145 37.005798,22.266647 
	C40.915874,23.014608 44.807846,24.134314 48.624039,25.828491 
	C47.356518,27.600859 46.164768,28.798750 44.608459,30.161180 
	C41.501297,30.547186 38.758698,30.768652 35.880917,30.702389 
	C35.495209,29.614321 35.244678,28.813986 34.994152,28.013649 
z"/>
<path fill="#BA8231" opacity="1.000000" stroke="none" 
	d="
M62.950562,29.861801 
	C65.750023,26.947193 68.393700,23.854652 71.422920,21.202456 
	C72.697716,20.086323 74.786850,19.900282 76.505791,19.291435 
	C76.719337,19.759579 76.932884,20.227724 77.146431,20.695868 
	C76.663658,21.703009 76.180878,22.710150 75.091949,24.106344 
	C74.008446,26.712114 73.531090,28.928831 73.053726,31.145548 
	C73.053726,31.145548 73.048210,31.050449 72.646683,31.049454 
	C69.184250,30.806736 66.123344,30.565012 63.015324,30.212559 
	C62.968212,30.101830 62.950562,29.861803 62.950562,29.861801 
z"/>
<path fill="#E2BE79" opacity="1.000000" stroke="none" 
	d="
M79.351532,48.994949 
	C76.300293,48.777489 73.570236,48.379562 70.497177,47.517921 
	C70.741585,43.946655 73.155136,40.019367 66.998489,39.585915 
	C68.352043,38.467640 69.673805,37.716885 71.253906,37.103271 
	C72.288025,37.829361 73.063797,38.418308 73.839569,39.007252 
	C75.783943,42.276329 77.728325,45.545406 79.351532,48.994949 
z"/>
<path fill="#EFEAC9" opacity="1.000000" stroke="none" 
	d="
M82.373116,73.892807 
	C80.610855,73.067863 79.141792,72.116982 77.388336,70.735886 
	C76.753807,68.864662 76.403679,67.423660 76.006577,65.605972 
	C75.913902,64.980400 75.868202,64.731499 75.822495,64.482597 
	C77.508064,62.208805 79.193642,59.935013 80.944183,57.322609 
	C81.658630,57.095840 82.843933,57.134850 82.870644,57.331341 
	C83.044258,58.608620 82.966072,59.920120 82.668976,61.956524 
	C82.399902,64.984001 82.432190,67.275368 82.464478,69.566742 
	C82.531761,70.966782 82.599037,72.366821 82.373116,73.892807 
M80.541756,70.510818 
	C80.541756,70.510818 80.481659,70.538170 80.541756,70.510818 
z"/>
<path fill="#D09F48" opacity="1.000000" stroke="none" 
	d="
M53.985909,27.160572 
	C56.739384,28.010832 59.492855,28.861090 62.598446,29.786575 
	C62.950562,29.861803 62.968212,30.101830 62.998848,30.556971 
	C63.365337,32.349884 63.701187,33.687653 63.902924,35.297211 
	C63.204395,36.392624 62.639988,37.216255 61.915398,37.730980 
	C60.605663,34.793129 59.075130,33.070518 55.690147,34.961060 
	C54.579605,34.271400 53.785912,33.626465 53.005592,32.609001 
	C53.341282,30.544506 53.663597,28.852539 53.985909,27.160572 
z"/>
<path fill="#E5D5A6" opacity="1.000000" stroke="none" 
	d="
M71.768318,84.589111 
	C72.852722,87.472290 73.937126,90.355476 75.030624,93.676041 
	C73.577065,95.694847 72.114403,97.276276 70.346649,98.976685 
	C69.835632,98.826294 69.629700,98.556915 69.207901,97.784714 
	C68.656364,96.191933 68.320679,95.101974 67.986641,93.676842 
	C67.994965,92.894829 68.001633,92.447990 68.371185,91.981522 
	C73.083290,90.762451 69.042221,87.756012 70.239243,85.644318 
	C70.873085,85.163742 71.320702,84.876427 71.768318,84.589111 
z"/>
<path fill="#B2924E" opacity="1.000000" stroke="none" 
	d="
M34.067436,13.571255 
	C33.576233,15.531616 33.031693,17.105412 32.462612,18.750116 
	C32.120296,18.314316 31.750170,17.843109 31.119497,16.858189 
	C29.237877,14.894783 27.616802,13.445089 26.133396,11.726891 
	C26.815275,10.621334 27.359488,9.784283 27.879637,8.630636 
	C27.593283,7.511600 27.330996,6.709160 27.068707,5.906721 
	C28.502234,5.974392 29.935759,6.042063 31.578104,6.119592 
	C32.396122,8.492093 33.205109,10.838389 34.067436,13.571255 
z"/>
<path fill="#D7AC58" opacity="1.000000" stroke="none" 
	d="
M64.037041,35.025421 
	C63.701187,33.687653 63.365337,32.349884 63.045959,30.667702 
	C66.123344,30.565012 69.184250,30.806736 72.694290,31.050800 
	C73.424423,33.434052 73.705421,35.814960 73.912994,38.601559 
	C73.063797,38.418308 72.288025,37.829361 71.091217,36.830498 
	C68.459137,35.955528 66.248093,35.490475 64.037041,35.025421 
z"/>
<path fill="#D3A856" opacity="1.000000" stroke="none" 
	d="
M53.649391,26.991978 
	C53.663597,28.852539 53.341282,30.544506 52.674957,32.613617 
	C51.889824,32.993649 51.448704,32.996536 50.773697,32.768929 
	C49.694817,32.358036 48.849823,32.177635 47.736935,31.855366 
	C46.637035,31.141211 45.805027,30.568928 44.973019,29.996643 
	C46.164768,28.798750 47.356518,27.600859 48.800453,26.151598 
	C50.472721,26.207949 51.892796,26.515667 53.649391,26.991978 
z"/>
<path fill="#9A622A" opacity="1.000000" stroke="none" 
	d="
M27.081429,5.935907 
	C27.330996,6.709160 27.593283,7.511600 27.547031,8.660317 
	C26.488890,9.668401 25.739286,10.330206 24.637096,10.981498 
	C23.510210,10.272301 22.735914,9.573616 21.961620,8.874931 
	C22.602877,8.095722 23.244135,7.316513 24.388752,6.262263 
	C25.640535,5.964286 26.388958,5.941349 27.137381,5.918411 
	C27.137381,5.918411 27.094152,5.965093 27.081429,5.935907 
z"/>
<path fill="#B48135" opacity="1.000000" stroke="none" 
	d="
M17.158253,25.967609 
	C17.180223,23.784389 17.202194,21.601168 17.831821,19.208624 
	C18.626087,19.012295 18.812698,19.025288 19.001720,19.432415 
	C19.009659,20.881340 19.015186,21.936129 19.016048,23.392412 
	C19.005512,24.864130 18.999640,25.934357 18.749962,26.902706 
	C18.056856,26.523088 17.607553,26.245350 17.158253,25.967609 
z"/>
<path fill="#D7AE5A" opacity="1.000000" stroke="none" 
	d="
M73.382332,31.218287 
	C73.531090,28.928831 74.008446,26.712114 74.771751,24.263943 
	C75.057701,26.853718 75.057701,29.674946 75.057701,32.496174 
	C74.833344,32.564526 74.608994,32.632881 74.384636,32.701233 
	C74.160072,32.231163 73.935501,31.761095 73.382332,31.218287 
z"/>
<path fill="#A66F30" opacity="1.000000" stroke="none" 
	d="
M21.663513,9.049292 
	C22.735914,9.573616 23.510210,10.272301 24.638929,11.229360 
	C24.993353,11.487735 24.992392,11.983289 24.740362,12.103126 
	C23.993628,12.480202 23.498924,12.737441 22.653206,12.997057 
	C21.601175,13.006458 20.900158,13.013483 20.199139,13.020508 
	C20.587896,11.754889 20.976652,10.489271 21.663513,9.049292 
z"/>
<path fill="#A66F30" opacity="1.000000" stroke="none" 
	d="
M18.999311,19.038280 
	C18.812698,19.025288 18.626087,19.012295 18.160160,18.971935 
	C18.027822,18.058933 18.174801,17.173294 19.003891,16.135931 
	C20.454313,15.989486 21.222626,15.994765 21.992355,16.333534 
	C21.990488,17.111666 21.987204,17.556307 21.668329,18.039690 
	C20.568262,18.398380 19.783787,18.718330 18.999311,19.038280 
z"/>
<path fill="#A87C3C" opacity="1.000000" stroke="none" 
	d="
M21.990938,16.000046 
	C21.222626,15.994765 20.454313,15.989486 19.301659,15.974873 
	C19.246027,15.180444 19.574734,14.395348 20.051292,13.315380 
	C20.900158,13.013483 21.601175,13.006458 22.613180,13.314201 
	C22.613091,14.419329 22.302015,15.209687 21.990938,16.000046 
z"/>
<path fill="#E4DAB0" opacity="1.000000" stroke="none" 
	d="
M82.707176,69.217728 
	C82.432190,67.275368 82.399902,64.984001 82.594086,62.344341 
	C82.863655,64.286942 82.906769,66.577835 82.707176,69.217728 
z"/>
<path fill="#A87533" opacity="1.000000" stroke="none" 
	d="
M27.061707,5.597234 
	C26.388958,5.941349 25.640535,5.964286 24.518343,5.984875 
	C25.091726,5.747035 26.038879,5.511546 27.061707,5.597234 
z"/>
<path fill="#9A622A" opacity="1.000000" stroke="none" 
	d="
M19.898335,29.931713 
	C19.414202,29.703218 18.930069,29.474724 18.215860,29.109402 
	C18.034973,28.811089 18.084164,28.649603 18.404018,28.228718 
	C18.871861,27.951000 19.069038,27.932682 19.450294,27.934227 
	C19.634373,27.954086 20.005953,27.992008 20.001593,28.316301 
	C19.964268,29.070967 19.931301,29.501339 19.898335,29.931713 
z"/>
<path fill="#8D5523" opacity="1.000000" stroke="none" 
	d="
M19.266214,27.914366 
	C19.069038,27.932682 18.871861,27.951000 18.378057,27.976835 
	C17.741659,27.523447 17.401890,27.062542 17.110188,26.284622 
	C17.607553,26.245350 18.056856,26.523088 18.808426,27.133038 
	C19.110695,27.465244 19.266214,27.914366 19.266214,27.914366 
z"/>
<path fill="#CAB787" opacity="1.000000" stroke="none" 
	d="
M13.296362,73.979843 
	C11.740946,71.568047 10.513983,69.105225 9.367149,66.123779 
	C9.629395,65.056374 9.811509,64.507576 10.319475,63.883171 
	C11.076499,62.874729 11.507670,61.941898 12.312094,61.017960 
	C17.535759,62.213711 21.024490,64.806046 21.638500,69.935051 
	C18.777355,68.357971 16.248306,66.868622 14.768345,65.997078 
	C15.699135,67.486778 16.893118,69.787682 18.527819,71.714729 
	C18.894545,72.147041 20.803223,71.271317 22.333670,70.944916 
	C27.384180,68.817825 21.697062,66.241081 23.330627,64.146439 
	C26.434399,64.531624 29.205584,64.772171 31.991539,65.318909 
	C32.010189,67.079483 32.014076,68.533859 31.679184,70.082611 
	C31.340406,72.486320 31.340406,74.795654 31.340406,77.243500 
	C29.736279,78.258179 27.908617,79.414253 26.844933,80.087074 
	C28.441908,84.266640 29.730568,87.639282 30.962803,91.340164 
	C29.948769,92.429565 28.991156,93.190727 28.033541,93.951897 
	C27.229809,93.008560 26.595821,91.786560 25.590498,91.174171 
	C22.581991,89.341583 20.159195,88.037964 18.956432,83.660255 
	C18.098972,80.539352 16.050533,77.543175 16.607927,73.434982 
	C15.428315,73.630249 14.526564,73.779526 13.296362,73.979843 
z"/>
<path fill="#C0A769" opacity="1.000000" stroke="none" 
	d="
M27.692348,93.968689 
	C28.991156,93.190727 29.948769,92.429565 31.284573,91.285248 
	C32.842911,89.887970 34.023056,88.873848 35.311817,87.766388 
	C34.285969,87.125023 33.655518,86.730858 32.830894,86.215294 
	C37.552673,83.435341 40.228840,86.892387 42.614952,89.481316 
	C43.578747,90.527039 42.773857,93.202866 42.773857,95.759636 
	C42.982510,95.832916 44.262383,96.282387 45.476383,96.708733 
	C44.575867,99.366196 43.793720,101.674347 42.679558,103.984299 
	C41.904884,103.980324 41.462227,103.974548 40.804771,103.725090 
	C39.397839,102.983131 38.205715,102.484848 36.830406,101.690079 
	C33.093544,98.935059 29.539871,96.476517 25.986198,94.017975 
	C26.441183,94.007141 26.896170,93.996307 27.692348,93.968689 
z"/>
<path fill="#B59B59" opacity="1.000000" stroke="none" 
	d="
M25.639519,94.026184 
	C29.539871,96.476517 33.093544,98.935059 36.479912,101.696419 
	C31.710060,101.961365 33.951649,104.183586 34.988804,106.008072 
	C34.816299,106.011414 34.643791,106.014755 33.867672,106.002274 
	C31.853752,105.315681 30.443445,104.644913 29.033138,103.974136 
	C29.033138,103.974136 29.003525,104.000206 28.949188,103.681625 
	C28.272511,102.897430 27.650167,102.431808 27.027824,101.966187 
	C26.099844,100.832443 25.171865,99.698700 24.077900,98.295563 
	C23.359203,96.345131 22.063280,94.406982 25.639519,94.026184 
z"/>
<path fill="#C8B583" opacity="1.000000" stroke="none" 
	d="
M14.402040,95.159256 
	C14.375453,95.135132 14.428628,95.183388 14.402040,95.159256 
z"/>
<path fill="#D0BA83" opacity="1.000000" stroke="none" 
	d="
M12.835322,45.430458 
	C15.242596,45.178684 17.474098,45.196381 19.657057,45.791008 
	C13.122315,49.728054 12.815804,51.554710 18.125671,56.290016 
	C18.502884,57.386902 18.746704,58.193638 18.635624,58.984768 
	C16.511007,57.986080 14.741289,57.002998 12.696812,55.856609 
	C11.283992,54.464867 10.145931,53.236423 9.007872,52.007980 
	C9.007872,52.007980 8.945042,51.535572 8.904929,51.301014 
	C10.129727,49.277615 11.394639,47.488773 12.835322,45.430458 
z"/>
<path fill="#C6B079" opacity="1.000000" stroke="none" 
	d="
M12.971573,56.019913 
	C14.741289,57.002998 16.511007,57.986080 18.882195,58.996277 
	C19.483665,59.023396 19.976925,59.037151 20.035366,59.384754 
	C21.061708,61.155514 22.029610,62.578667 22.998737,64.000916 
	C22.999964,64.000000 22.998045,64.001801 22.998045,64.001801 
	C21.697062,66.241081 27.384180,68.817825 22.325190,70.701202 
	C21.985069,70.510338 21.970594,70.022781 21.970594,70.022781 
	C21.024490,64.806046 17.535759,62.213711 11.977016,61.018425 
	C10.819355,61.002640 10.370020,60.995281 9.920686,60.987926 
	C9.913880,60.237129 9.907074,59.486328 10.251619,58.352722 
	C11.392507,57.319916 12.182040,56.669914 12.971573,56.019913 
z"/>
<path fill="#C3A765" opacity="1.000000" stroke="none" 
	d="
M12.696813,55.856609 
	C12.182040,56.669914 11.392507,57.319916 10.249571,57.977306 
	C9.595374,56.257492 9.294580,54.530293 9.000828,52.405533 
	C10.145931,53.236423 11.283992,54.464867 12.696813,55.856609 
z"/>
<path fill="#C3A765" opacity="1.000000" stroke="none" 
	d="
M9.584408,61.002335 
	C10.370020,60.995281 10.819355,61.002640 11.603765,61.009533 
	C11.507670,61.941898 11.076499,62.874729 10.090219,63.661911 
	C8.712194,63.357391 7.889278,63.198524 7.066362,63.039658 
	C7.793618,62.365353 8.520874,61.691048 9.584408,61.002335 
z"/>
<path fill="#C6B079" opacity="1.000000" stroke="none" 
	d="
M7.087280,63.351715 
	C7.889278,63.198524 8.712194,63.357391 9.764367,63.737518 
	C9.811509,64.507576 9.629395,65.056374 9.228600,65.800476 
	C8.842736,65.996140 8.675553,65.996483 8.257673,65.996719 
	C7.707383,65.219002 7.407791,64.441391 7.087280,63.351715 
z"/>
<path fill="#C0AB73" opacity="1.000000" stroke="none" 
	d="
M28.975967,104.290482 
	C30.443445,104.644913 31.853752,105.315681 33.608917,106.007736 
	C33.176956,106.659500 32.400139,107.289986 31.310360,107.960297 
	C29.675425,108.187592 28.353445,108.375046 26.392525,108.653099 
	C27.503611,106.873497 28.211203,105.740166 28.975967,104.290482 
z"/>
<path fill="#C0AB73" opacity="1.000000" stroke="none" 
	d="
M27.083248,102.277908 
	C27.650167,102.431808 28.272511,102.897430 28.960579,103.667160 
	C28.397091,103.510712 27.767881,103.050171 27.083248,102.277908 
z"/>
<path fill="#D6C28C" opacity="1.000000" stroke="none" 
	d="
M68.008308,92.001144 
	C68.001633,92.447990 67.994965,92.894829 67.780243,93.928047 
	C66.778885,96.615784 62.308258,97.830498 65.789871,101.258774 
	C64.382584,102.001053 63.190372,102.499001 61.998161,102.996948 
	C61.000111,101.918510 60.002064,100.840065 59.215492,99.159599 
	C59.333336,96.267426 58.652470,93.830734 61.280556,91.987000 
	C61.990868,91.171631 62.445126,90.525146 63.138855,89.800980 
	C63.544575,89.700218 63.710819,89.677155 63.977219,90.021416 
	C65.387688,90.926208 66.697998,91.463676 68.008308,92.001144 
z"/>
<path fill="#CCB375" opacity="1.000000" stroke="none" 
	d="
M49.998402,105.018799 
	C49.998474,105.194267 49.998550,105.369728 49.654869,105.743835 
	C47.877163,105.307510 46.443214,104.672531 45.027481,103.668869 
	C45.579750,102.570030 46.008400,101.328178 46.664993,101.192924 
	C50.863445,100.328094 49.620232,98.251244 48.003460,95.666595 
	C48.005436,94.890167 48.006020,94.446495 48.366482,94.003616 
	C49.817200,94.335922 50.908043,94.667435 52.017334,95.356354 
	C53.359188,96.809258 54.682598,97.904747 56.006004,99.000229 
	C56.006008,99.000229 56.000202,99.496826 55.639778,99.759026 
	C53.519039,101.687080 51.758720,103.352943 49.998402,105.018799 
z"/>
<path fill="#D2BA7E" opacity="1.000000" stroke="none" 
	d="
M56.379795,99.000114 
	C54.682598,97.904747 53.359188,96.809258 52.358429,95.261414 
	C53.120579,93.542107 53.560078,92.275146 54.346294,91.006912 
	C55.153793,90.964203 55.614571,90.922783 56.058495,90.921722 
	C56.041634,90.962074 55.984318,91.028152 56.038055,91.301704 
	C56.745872,91.657623 57.399948,91.739990 58.424232,91.872223 
	C59.537796,92.000015 60.281151,92.077950 61.024506,92.155891 
	C58.652470,93.830734 59.333336,96.267426 59.211800,98.778412 
	C58.248947,98.999504 57.501266,98.999748 56.379795,99.000114 
z"/>
<path fill="#DDBF7E" opacity="1.000000" stroke="none" 
	d="
M61.914658,103.341843 
	C63.190372,102.499001 64.382584,102.001053 66.040161,101.249519 
	C66.672340,100.987518 66.839134,100.979095 67.005936,100.970680 
	C67.098022,102.435028 67.190102,103.899368 67.139862,105.680222 
	C64.810097,107.133751 62.622635,108.270790 60.216827,109.204369 
	C60.609367,107.229523 61.220257,105.458138 61.914658,103.341843 
z"/>
<path fill="#D2BA7E" opacity="1.000000" stroke="none" 
	d="
M50.399704,105.015549 
	C51.758720,103.352943 53.519039,101.687080 55.638065,100.007332 
	C56.290932,101.748894 56.585091,103.504349 56.936272,105.637924 
	C54.929195,105.681458 52.865097,105.346878 50.399704,105.015549 
z"/>
<path fill="#B89B53" opacity="1.000000" stroke="none" 
	d="
M45.009266,104.037552 
	C46.443214,104.672531 47.877163,105.307510 49.647087,106.006912 
	C48.563370,107.345673 47.143681,108.619987 45.364464,109.954147 
	C43.343636,109.241730 41.682343,108.469475 40.140297,107.065834 
	C40.512886,105.612556 40.766232,104.790665 41.019573,103.968773 
	C41.462227,103.974548 41.904884,103.980324 42.887016,104.074982 
	C43.954086,104.121758 44.481678,104.079659 45.009266,104.037552 
z"/>
<path fill="#B0924D" opacity="1.000000" stroke="none" 
	d="
M40.804771,103.725090 
	C40.766232,104.790665 40.512886,105.612556 40.125832,106.731354 
	C38.512371,106.848267 37.032619,106.668266 35.270836,106.248169 
	C33.951649,104.183586 31.710060,101.961365 36.663101,101.992905 
	C38.205715,102.484848 39.397839,102.983131 40.804771,103.725090 
z"/>
<path fill="#D8C794" opacity="1.000000" stroke="none" 
	d="
M67.017502,100.630203 
	C66.839134,100.979095 66.672340,100.987518 66.255249,101.005188 
	C62.308258,97.830498 66.778885,96.615784 67.778595,94.263214 
	C68.320679,95.101974 68.656364,96.191933 68.995148,97.642258 
	C68.341858,98.764992 67.685463,99.527367 67.017502,100.630203 
z"/>
<path fill="#080704" opacity="1.000000" stroke="none" 
	d="
M63.069519,47.848129 
	C63.024471,51.717690 62.979424,55.587250 62.652393,59.760075 
	C61.958027,59.690727 61.545643,59.318115 61.096252,58.556850 
	C59.467926,56.008167 61.373699,49.647186 55.020748,52.793236 
	C54.331745,50.328220 53.675056,48.238308 53.274155,46.091415 
	C53.696674,45.982269 53.863407,45.930107 54.299149,46.004372 
	C55.064018,46.388012 55.559883,46.645226 56.415825,46.957970 
	C58.525761,46.960583 60.275616,46.907658 62.262131,46.946808 
	C62.689034,47.308632 62.879276,47.578381 63.069519,47.848129 
z"/>
<path fill="#DDC48A" opacity="1.000000" stroke="none" 
	d="
M66.966698,39.953438 
	C73.155136,40.019367 70.741585,43.946655 70.083145,47.433388 
	C68.299706,47.847019 66.587280,47.881466 64.447678,47.460239 
	C65.002563,44.654190 65.984634,42.303814 66.966698,39.953438 
z"/>
<path fill="#D1B26E" opacity="1.000000" stroke="none" 
	d="
M66.998489,39.585915 
	C65.984634,42.303814 65.002563,44.654190 64.024048,47.396011 
	C64.027588,47.787457 63.554348,47.909306 63.311935,47.878716 
	C62.879276,47.578381 62.689034,47.308632 62.252319,46.545921 
	C62.029091,43.381935 62.052334,40.710911 62.075577,38.039886 
	C62.639988,37.216255 63.204395,36.392624 63.902924,35.297207 
	C66.248093,35.490475 68.459137,35.955528 70.832870,36.693352 
	C69.673805,37.716885 68.352043,38.467640 66.998489,39.585915 
z"/>
<path fill="#0C0B07" opacity="1.000000" stroke="none" 
	d="
M69.146378,51.081978 
	C70.876701,51.849037 73.416908,52.815830 73.337761,53.461651 
	C73.117371,55.260193 71.860062,56.957317 70.830498,58.579124 
	C70.753647,58.700176 68.841461,58.138775 68.457100,57.493065 
	C67.214615,55.405743 65.602943,53.090717 69.146378,51.081978 
z"/>
<path fill="#CAB786" opacity="1.000000" stroke="none" 
	d="
M64.082298,62.974426 
	C65.849716,63.680614 67.617142,64.386803 69.738770,65.488701 
	C70.074669,66.235641 70.056358,66.586868 69.694946,66.959778 
	C68.894470,67.005302 68.437088,67.029144 67.657684,66.950333 
	C66.902046,66.723450 66.468422,66.599220 65.748138,66.323578 
	C64.299263,66.463562 63.137051,66.754974 61.735611,67.098824 
	C61.496376,67.151268 61.014305,67.064407 60.886047,66.806793 
	C60.512012,65.375862 60.266235,64.202545 60.426514,63.022125 
	C61.915817,63.001495 62.999058,62.987961 64.082298,62.974426 
z"/>
<path fill="#DFC385" opacity="1.000000" stroke="none" 
	d="
M63.963573,62.693573 
	C62.999058,62.987961 61.915817,63.001495 60.170151,62.897312 
	C59.003151,62.517479 58.498573,62.255360 58.015839,61.624958 
	C59.069538,60.486286 60.101398,59.715893 61.133259,58.945499 
	C61.545643,59.318115 61.958027,59.690727 62.625015,60.195320 
	C63.201366,61.022438 63.523106,61.717583 63.963573,62.693573 
z"/>
<path fill="#EEDAA4" opacity="1.000000" stroke="none" 
	d="
M70.038040,66.938095 
	C70.056358,66.586868 70.074669,66.235641 70.080971,65.620697 
	C70.782417,65.336426 71.495865,65.315865 72.695511,65.428772 
	C73.472305,65.419884 73.762917,65.277519 74.053520,65.135155 
	C74.440964,64.976059 74.828415,64.816971 75.519180,64.570236 
	C75.868202,64.731499 75.913902,64.980400 75.710518,65.866135 
	C74.460548,67.319443 73.459656,68.135910 72.134239,68.903580 
	C71.210754,68.601715 70.611794,68.348633 70.108269,67.807953 
	C70.148483,67.326271 70.093262,67.132179 70.038040,66.938095 
z"/>
<path fill="#AF9E6F" opacity="1.000000" stroke="none" 
	d="
M73.758522,65.105499 
	C73.762917,65.277519 73.472305,65.419884 73.052902,65.442146 
	C73.103905,65.239983 73.283714,65.157906 73.758522,65.105499 
z"/>
<path fill="#1E1B13" opacity="1.000000" stroke="none" 
	d="
M34.961109,63.129494 
	C33.802906,59.734993 32.397308,56.401314 31.544277,52.931782 
	C30.253254,47.680794 31.694424,45.662193 37.585369,44.327892 
	C37.934261,45.754990 37.943024,46.883327 37.958191,48.263065 
	C37.969887,48.682144 37.975174,48.849815 37.996986,49.358658 
	C38.666615,50.473080 39.319717,51.246334 40.175335,52.149303 
	C40.633862,52.481609 40.834743,52.728962 41.061451,53.397453 
	C44.489353,54.910000 47.836304,56.046181 51.308826,57.224991 
	C50.640495,58.658585 49.835140,60.386101 48.886177,62.408005 
	C47.476448,63.422886 46.210327,64.143379 44.516869,64.918571 
	C41.074509,64.618378 38.059483,64.263481 35.019119,63.714294 
	C34.993786,63.520004 34.961109,63.129494 34.961109,63.129494 
z"/>
<path fill="#D1C499" opacity="1.000000" stroke="none" 
	d="
M34.634239,63.067108 
	C34.961109,63.129494 34.993786,63.520004 34.786255,63.959900 
	C33.711407,64.604103 32.844090,64.808411 31.976770,65.012718 
	C29.205584,64.772171 26.434399,64.531624 23.330627,64.146439 
	C22.998045,64.001801 22.999964,64.000000 22.999418,63.622543 
	C21.991556,61.842438 20.984241,60.439796 19.976925,59.037151 
	C19.976925,59.037151 19.483665,59.023396 19.237095,59.011887 
	C18.746704,58.193638 18.502884,57.386902 18.330973,56.071175 
	C19.358458,54.155697 20.023071,52.273140 21.344614,51.465446 
	C22.930897,50.495956 25.076984,50.442421 26.979069,50.304367 
	C26.537851,51.179665 26.169319,51.822971 25.643759,52.289307 
	C24.564589,53.246868 23.401316,54.109650 22.272659,55.011444 
	C23.400551,56.009411 24.397337,57.251526 25.688736,57.945011 
	C27.393797,58.860634 29.329855,59.346092 31.166615,60.016464 
	C32.213531,61.012550 33.260448,62.008636 34.634239,63.067108 
z"/>
<path fill="#D2AE63" opacity="1.000000" stroke="none" 
	d="
M17.446884,39.925941 
	C20.093397,38.231098 23.118256,36.601562 26.920429,34.972015 
	C29.135563,35.649197 30.573383,36.326389 32.007809,37.420746 
	C31.998463,39.505135 31.992514,41.172359 31.986565,42.839581 
	C27.266119,41.890137 22.545675,40.940689 17.446884,39.925941 
z"/>
<path fill="#D2C190" opacity="1.000000" stroke="none" 
	d="
M26.980675,49.992268 
	C25.076984,50.442421 22.930897,50.495956 21.344614,51.465446 
	C20.023071,52.273140 19.358458,54.155697 18.197582,55.781025 
	C12.815804,51.554710 13.122315,49.728054 19.837761,46.110600 
	C22.276495,46.308552 24.485987,46.763840 26.862549,47.899460 
	C27.013306,49.050617 26.996990,49.521442 26.980675,49.992268 
z"/>
<path fill="#1E1B13" opacity="1.000000" stroke="none" 
	d="
M53.018368,46.148392 
	C53.675056,48.238308 54.331745,50.328220 55.010487,53.010765 
	C55.032539,53.603397 54.883968,54.012814 54.570152,54.000385 
	C53.837605,53.992130 53.418880,53.996304 52.948433,53.669422 
	C51.939789,52.551067 50.982864,51.763767 49.799698,50.802544 
	C49.052235,50.079670 48.531010,49.530712 48.006142,48.992367 
	C48.002506,49.002975 48.021980,48.988529 47.945412,48.616135 
	C45.244503,47.504539 42.620163,46.765335 39.995037,45.688889 
	C39.997227,44.902058 40.000195,44.452461 40.003166,44.002869 
	C41.747723,43.997017 43.492283,43.991169 46.048737,43.992249 
	C48.913208,44.715584 50.965786,45.431988 53.018368,46.148392 
z"/>
<path fill="#D2BA82" opacity="1.000000" stroke="none" 
	d="
M53.274155,46.091415 
	C50.965786,45.431988 48.913208,44.715584 46.484924,43.982403 
	C45.619808,43.347256 45.130394,42.728882 44.578041,41.728661 
	C45.008698,40.230530 45.502296,39.114246 45.998646,38.016220 
	C46.001392,38.034473 46.037468,38.041660 46.430611,38.033516 
	C53.827244,39.034309 54.990753,40.302147 54.030144,45.877941 
	C53.863407,45.930107 53.696674,45.982269 53.274155,46.091415 
z"/>
<path fill="#D9CEA3" opacity="1.000000" stroke="none" 
	d="
M26.979071,50.304367 
	C26.996990,49.521442 27.013306,49.050617 27.046543,48.227131 
	C28.384640,51.661247 29.705811,55.448021 31.096798,59.625633 
	C29.329855,59.346092 27.393797,58.860634 25.688736,57.945011 
	C24.397337,57.251526 23.400551,56.009411 22.272659,55.011444 
	C23.401316,54.109650 24.564589,53.246868 25.643759,52.289307 
	C26.169319,51.822971 26.537851,51.179665 26.979071,50.304367 
z"/>
<path fill="#C6A154" opacity="1.000000" stroke="none" 
	d="
M32.365707,42.911320 
	C31.992514,41.172359 31.998463,39.505135 32.364693,37.474236 
	C34.821014,37.077969 36.917065,37.045383 39.009956,37.363335 
	C38.344414,39.064342 37.682026,40.414814 37.019642,41.765282 
	C35.594711,42.171207 34.169777,42.577133 32.365707,42.911320 
z"/>
<path fill="#B9944A" opacity="1.000000" stroke="none" 
	d="
M37.456093,41.841019 
	C37.682026,40.414814 38.344414,39.064342 39.004704,37.358917 
	C39.002605,37.003956 39.013771,37.013214 39.409672,37.013535 
	C41.869015,37.341892 43.932453,37.669930 45.995895,37.997963 
	C45.502296,39.114246 45.008698,40.230530 44.309708,41.594425 
	C42.033722,41.866947 39.963131,41.891850 37.456093,41.841019 
z"/>
<path fill="#12100B" opacity="1.000000" stroke="none" 
	d="
M39.668831,43.999542 
	C40.000195,44.452461 39.997227,44.902058 39.857304,45.944523 
	C39.130829,47.028816 38.541306,47.520241 37.951782,48.011665 
	C37.943024,46.883327 37.934261,45.754990 37.961300,44.314564 
	C38.442898,44.000385 38.888699,43.998299 39.668831,43.999542 
z"/>
<path fill="#242119" opacity="1.000000" stroke="none" 
	d="
M70.012833,68.095551 
	C70.611794,68.348633 71.210754,68.601715 72.171051,69.153709 
	C72.994339,69.649040 73.456299,69.845451 73.918259,70.041862 
	C73.839050,71.959129 73.759842,73.876396 73.194229,75.633774 
	C71.804657,74.981567 70.901489,74.489258 69.998489,73.616661 
	C69.997261,72.221985 69.995857,71.207588 70.030777,70.083313 
	C70.067101,69.973419 70.151314,69.757805 70.201935,69.335144 
	C70.172653,68.640167 70.092743,68.367859 70.012833,68.095551 
z"/>
<path fill="#625946" opacity="1.000000" stroke="none" 
	d="
M71.750824,84.385460 
	C71.320702,84.876427 70.873085,85.163742 70.249023,85.506752 
	C70.072586,85.562447 69.957840,85.311127 69.760231,85.226501 
	C69.277847,85.074028 68.989258,85.033119 68.431839,85.029709 
	C67.990082,85.045090 67.813339,85.049927 67.624252,84.778870 
	C67.074867,83.999878 66.537834,83.496765 66.112686,82.746437 
	C66.502029,82.032753 66.779480,81.566292 67.253304,80.953308 
	C67.708611,80.597282 67.906120,80.340530 68.311440,79.984581 
	C68.994583,79.597740 69.408478,79.262840 70.146957,78.968620 
	C70.687073,79.042519 70.902603,79.075737 71.236778,79.312042 
	C71.556465,79.783829 71.823891,79.936127 72.157692,79.971992 
	C72.196564,80.703102 72.235443,81.434219 72.086533,82.727371 
	C71.898758,83.289421 71.821854,83.782700 71.821854,83.782700 
	C71.821854,83.782700 71.733330,84.181808 71.750824,84.385460 
z"/>
<path fill="#EAE3BB" opacity="1.000000" stroke="none" 
	d="
M74.202415,70.082390 
	C73.456299,69.845451 72.994339,69.649040 72.495575,69.202499 
	C73.459656,68.135910 74.460548,67.319443 75.757492,66.242813 
	C76.403679,67.423660 76.753807,68.864662 77.052269,70.652100 
	C76.162598,70.706657 75.324585,70.414787 74.202415,70.082390 
z"/>
<path fill="#3D3326" opacity="1.000000" stroke="none" 
	d="
M71.118141,79.108963 
	C70.902603,79.075737 70.687073,79.042519 69.952286,78.723572 
	C69.621056,76.958084 69.809067,75.478302 69.998535,73.999268 
	C70.000000,74.000000 69.998322,73.996948 69.998322,73.996948 
	C70.901489,74.489258 71.804657,74.981567 72.859650,75.756668 
	C72.816032,76.873718 72.620583,77.707993 72.030258,78.798134 
	C71.462967,79.072319 71.290558,79.090637 71.118141,79.108963 
z"/>
<path fill="#9E967C" opacity="1.000000" stroke="none" 
	d="
M72.017944,83.783989 
	C71.821854,83.782700 71.898758,83.289421 72.054832,83.093399 
	C72.311676,83.111023 72.434433,83.318596 72.496460,83.542969 
	C72.510521,83.593826 72.313759,83.702965 72.017944,83.783989 
z"/>
<path fill="#7E7968" opacity="1.000000" stroke="none" 
	d="
M71.236778,79.312042 
	C71.290558,79.090637 71.462967,79.072319 71.892899,79.090988 
	C72.150421,79.127975 72.298172,79.548904 72.227936,79.760452 
	C71.823891,79.936127 71.556465,79.783829 71.236778,79.312042 
z"/>
<path fill="#CEA758" opacity="1.000000" stroke="none" 
	d="
M39.007858,37.008377 
	C36.917065,37.045383 34.821014,37.077969 32.368088,37.057068 
	C30.573383,36.326389 29.135563,35.649197 27.298391,34.952393 
	C27.521179,34.139488 28.143320,33.346195 28.933754,32.300163 
	C30.896711,30.849409 32.691380,29.651392 34.740101,28.233513 
	C35.244678,28.813986 35.495209,29.614321 35.895176,31.065754 
	C37.034336,33.482304 38.024055,35.247761 39.013771,37.013214 
	C39.013771,37.013214 39.002605,37.003956 39.007858,37.008377 
z"/>
<path fill="#413526" opacity="1.000000" stroke="none" 
	d="
M27.327389,22.372656 
	C27.345539,22.954031 27.363691,23.535408 27.285854,24.679207 
	C27.142656,25.427559 27.095446,25.613487 27.030716,26.223511 
	C27.012333,27.779997 27.011469,28.912386 27.010607,30.044777 
	C27.010607,30.044777 27.001654,30.475914 26.988220,30.690908 
	C26.111790,30.338789 25.248795,29.771675 24.185589,28.828762 
	C23.954830,28.011030 23.924284,27.569096 23.984226,26.736362 
	C24.719553,23.890137 25.364391,21.434711 26.004883,18.988529 
	C26.000534,18.997770 26.009008,18.985023 26.138884,19.186409 
	C26.486097,19.637953 26.756306,19.799921 27.102774,19.846136 
	C27.126167,19.818573 27.191086,19.850409 27.153221,20.271923 
	C27.186035,21.253178 27.256712,21.812918 27.327389,22.372656 
z"/>
<path fill="#A97F41" opacity="1.000000" stroke="none" 
	d="
M23.893738,27.127163 
	C23.924284,27.569096 23.954830,28.011030 23.958073,28.785103 
	C22.829180,29.401573 21.727592,29.685904 20.262171,29.950972 
	C19.931301,29.501339 19.964268,29.070967 20.260086,28.181374 
	C21.025042,27.142714 21.527142,26.563272 22.254818,26.003086 
	C22.480394,26.022343 22.932234,26.059942 23.051895,26.272161 
	C23.359169,26.758314 23.599895,26.972576 23.893738,27.127163 
z"/>
<path fill="#996F40" opacity="1.000000" stroke="none" 
	d="
M21.992355,16.333534 
	C22.302015,15.209687 22.613091,14.419329 22.964195,13.311825 
	C23.498924,12.737441 23.993628,12.480202 24.991219,12.108320 
	C25.661316,11.994250 25.828524,11.994823 25.995729,11.995395 
	C27.616802,13.445089 29.237877,14.894783 30.903759,16.680574 
	C30.627153,17.814610 30.305740,18.612547 29.617199,19.718349 
	C28.563740,19.967613 27.877413,19.909010 27.191086,19.850409 
	C27.191086,19.850409 27.126167,19.818573 26.978926,19.641174 
	C26.600502,19.230242 26.326277,19.070658 26.009008,18.985023 
	C26.009008,18.985023 26.000534,18.997770 25.808823,18.787630 
	C24.734629,19.380869 23.852142,20.184248 22.731686,20.994591 
	C22.493717,21.001554 22.017879,21.018494 22.011620,20.641312 
	C21.998213,19.509735 21.991068,18.755342 21.983921,18.000950 
	C21.987204,17.556307 21.990488,17.111666 21.992355,16.333534 
z"/>
<path fill="#2B261C" opacity="1.000000" stroke="none" 
	d="
M27.346256,29.981804 
	C27.011469,28.912386 27.012333,27.779997 27.270687,26.284134 
	C27.528179,25.920662 28.019747,25.980837 28.019745,25.980837 
	C27.907133,27.293503 27.794519,28.606167 27.346256,29.981804 
z"/>
<path fill="#654827" opacity="1.000000" stroke="none" 
	d="
M27.153221,20.271923 
	C27.877413,19.909010 28.563740,19.967613 29.594574,20.054016 
	C29.254261,20.776134 28.569443,21.470453 27.606007,22.268715 
	C27.256712,21.812918 27.186035,21.253178 27.153221,20.271923 
z"/>
<path fill="#654827" opacity="1.000000" stroke="none" 
	d="
M27.966806,25.744244 
	C28.019747,25.980837 27.528179,25.920662 27.288208,25.860039 
	C27.095446,25.613487 27.142656,25.427559 27.290775,24.970276 
	C27.628283,24.928114 27.802343,25.197691 27.966806,25.744244 
z"/>
<path fill="#C6A154" opacity="1.000000" stroke="none" 
	d="
M39.409672,37.013535 
	C38.024055,35.247761 37.034336,33.482304 36.030357,31.353485 
	C38.758698,30.768652 41.501297,30.547186 44.608459,30.161182 
	C45.805027,30.568928 46.637035,31.141211 47.734375,32.226814 
	C47.345623,34.507309 46.691544,36.274483 46.037468,38.041660 
	C46.037468,38.041660 46.001392,38.034473 45.998642,38.016220 
	C43.932453,37.669930 41.869015,37.341892 39.409672,37.013535 
z"/>
<path fill="#E4DAB0" opacity="1.000000" stroke="none" 
	d="
M80.511703,70.524490 
	C80.481659,70.538170 80.541756,70.510818 80.511703,70.524490 
z"/>
<path fill="#BC8A37" opacity="1.000000" stroke="none" 
	d="
M61.915398,37.730976 
	C62.052334,40.710911 62.029091,43.381935 62.015663,46.453846 
	C60.275616,46.907658 58.525761,46.960583 56.433128,46.604630 
	C56.092754,45.490227 56.095161,44.784698 56.467606,44.038715 
	C61.399181,40.553837 57.358959,37.903969 56.006996,35.005783 
	C59.075130,33.070518 60.605663,34.793129 61.915398,37.730976 
z"/>
<path fill="#C19B4D" opacity="1.000000" stroke="none" 
	d="
M55.690147,34.961060 
	C57.358959,37.903969 61.399181,40.553837 56.435585,43.630165 
	C55.059734,41.195187 54.104748,39.119160 53.105549,37.064640 
	C52.438812,35.693718 51.709106,34.353424 51.007584,32.999420 
	C51.448704,32.996536 51.889824,32.993649 52.661579,32.986145 
	C53.785912,33.626465 54.579605,34.271400 55.690147,34.961060 
z"/>
<path fill="#D8C794" opacity="1.000000" stroke="none" 
	d="
M68.371185,91.981522 
	C66.697998,91.463676 65.387688,90.926208 64.171463,89.761353 
	C65.104614,88.940529 65.943680,88.747070 67.022781,88.578362 
	C67.618050,88.462570 67.766273,88.203506 67.862045,87.587692 
	C68.346741,86.898659 68.676903,86.447853 69.277344,85.870743 
	C69.684372,85.599998 69.821106,85.455559 69.957840,85.311127 
	C69.957840,85.311127 70.072586,85.562447 70.062805,85.700012 
	C69.042221,87.756012 73.083290,90.762451 68.371185,91.981522 
z"/>
<path fill="#A37335" opacity="1.000000" stroke="none" 
	d="
M26.133396,11.726891 
	C25.828524,11.994823 25.661316,11.994250 25.243248,11.988483 
	C24.992392,11.983289 24.993353,11.487735 24.991520,11.239873 
	C25.739286,10.330206 26.488890,9.668401 27.571098,8.976913 
	C27.359488,9.784283 26.815275,10.621334 26.133396,11.726891 
z"/>
<path fill="#C3A461" opacity="1.000000" stroke="none" 
	d="
M50.773697,32.768929 
	C51.709106,34.353424 52.438812,35.693718 53.105549,37.064640 
	C54.104748,39.119160 55.059734,41.195187 56.065544,43.670616 
	C56.095161,44.784698 56.092754,45.490227 56.073051,46.549099 
	C55.559883,46.645226 55.064018,46.388012 54.299149,46.004372 
	C54.990753,40.302147 53.827244,39.034309 46.430611,38.033516 
	C46.691544,36.274483 47.345623,34.507309 48.002266,32.368683 
	C48.849823,32.177635 49.694817,32.358036 50.773697,32.768929 
z"/>
<path fill="#A87C3C" opacity="1.000000" stroke="none" 
	d="
M21.668329,18.039690 
	C21.991068,18.755342 21.998213,19.509735 22.041849,20.919699 
	C22.120251,21.757347 22.162159,21.939426 22.185452,22.338051 
	C22.166838,22.554600 22.068094,22.977930 21.686943,22.983219 
	C20.544100,22.989313 19.782408,22.990116 19.020714,22.990919 
	C19.015186,21.936129 19.009659,20.881340 19.001720,19.432415 
	C19.783787,18.718330 20.568262,18.398380 21.668329,18.039690 
z"/>
<path fill="#B38D48" opacity="1.000000" stroke="none" 
	d="
M19.016048,23.392412 
	C19.782408,22.990116 20.544100,22.989313 21.722578,23.305840 
	C22.176050,24.054089 22.212740,24.485012 22.173958,25.178696 
	C22.075409,25.622252 22.052328,25.803041 22.029243,25.983833 
	C21.527142,26.563272 21.025042,27.142714 20.264446,27.857082 
	C20.005953,27.992008 19.634373,27.954086 19.450294,27.934227 
	C19.266214,27.914366 19.110695,27.465244 19.052231,27.234913 
	C18.999640,25.934357 19.005512,24.864130 19.016048,23.392412 
z"/>
<path fill="#C4AE76" opacity="1.000000" stroke="none" 
	d="
M45.027481,103.668869 
	C44.481678,104.079659 43.954086,104.121758 43.219036,104.073181 
	C43.793720,101.674347 44.575867,99.366196 45.476383,96.708733 
	C44.262383,96.282387 42.982510,95.832916 42.773857,95.759636 
	C42.773857,93.202866 43.578747,90.527039 42.614952,89.481316 
	C40.228840,86.892387 37.552673,83.435341 32.830894,86.215294 
	C33.655518,86.730858 34.285969,87.125023 35.311817,87.766388 
	C34.023056,88.873848 32.842911,89.887970 31.340996,90.957016 
	C29.730568,87.639282 28.441908,84.266640 26.844933,80.087074 
	C27.908617,79.414253 29.736279,78.258179 31.340406,77.243500 
	C31.340406,74.795654 31.340406,72.486320 31.918278,70.098930 
	C32.496147,70.020866 32.975483,70.040207 33.038216,70.368240 
	C34.734257,72.465836 36.367561,74.235397 38.012596,76.374695 
	C39.018284,78.948875 39.935551,81.194534 41.077499,83.319450 
	C41.281040,83.698189 42.416443,83.576141 43.373337,83.749100 
	C43.795391,83.845474 43.965656,83.878082 44.288536,84.190132 
	C45.605270,85.351791 46.769394,86.234016 47.997536,87.374878 
	C48.707359,87.771370 49.353165,87.909218 50.230141,87.880920 
	C50.595379,87.369873 50.729446,87.024986 51.273869,86.746521 
	C52.491478,86.707191 53.298733,86.601425 54.017403,86.698471 
	C53.928818,86.901291 53.841888,87.335312 53.858047,87.699951 
	C53.916000,89.045792 53.957787,90.026985 53.999573,91.008186 
	C53.560078,92.275146 53.120579,93.542107 52.339985,94.904007 
	C50.908043,94.667435 49.817200,94.335922 48.174290,94.164734 
	C47.748833,94.883163 47.875446,95.441261 48.002064,95.999367 
	C49.620232,98.251244 50.863445,100.328094 46.664993,101.192924 
	C46.008400,101.328178 45.579750,102.570030 45.027481,103.668869 
z"/>
<path fill="#CEC299" opacity="1.000000" stroke="none" 
	d="
M32.975483,70.040207 
	C32.975483,70.040207 32.496147,70.020866 32.257057,70.004547 
	C32.014076,68.533859 32.010189,67.079483 31.991539,65.318909 
	C32.844090,64.808411 33.711407,64.604103 34.811592,64.154190 
	C38.059483,64.263481 41.074509,64.618378 44.643726,65.210526 
	C45.466339,67.300659 45.734760,69.153534 45.872551,71.206528 
	C45.536392,71.656738 45.289352,71.855179 44.588127,72.000267 
	C40.442123,71.345795 36.708801,70.693001 32.975483,70.040207 
z"/>
<path fill="#D0C294" opacity="1.000000" stroke="none" 
	d="
M21.638500,69.935051 
	C21.970594,70.022781 21.985069,70.510338 21.993549,70.754051 
	C20.803223,71.271317 18.894545,72.147041 18.527819,71.714729 
	C16.893118,69.787682 15.699135,67.486778 14.768345,65.997078 
	C16.248306,66.868622 18.777355,68.357971 21.638500,69.935051 
z"/>
<path fill="#CAB787" opacity="1.000000" stroke="none" 
	d="
M20.035366,59.384754 
	C20.984241,60.439796 21.991556,61.842438 22.998192,63.623451 
	C22.029610,62.578667 21.061708,61.155514 20.035366,59.384754 
z"/>
<path fill="#3B3225" opacity="1.000000" stroke="none" 
	d="
M66.782753,88.553619 
	C65.943680,88.747070 65.104614,88.940529 64.071304,89.394043 
	C63.710819,89.677155 63.544575,89.700218 62.816929,89.681908 
	C60.145420,88.851082 58.035313,88.061646 55.580837,87.167480 
	C54.771610,87.153603 54.306751,87.244453 53.841888,87.335312 
	C53.841888,87.335312 53.928818,86.901291 53.997974,86.626564 
	C54.067131,86.351837 54.091686,86.203186 54.367393,86.107849 
	C55.102757,85.672089 55.562416,85.331657 56.219402,84.871841 
	C56.668835,84.567757 56.872463,84.339767 57.255898,84.059700 
	C57.484180,84.050919 57.940990,84.042107 58.319359,84.102386 
	C61.677349,84.460030 64.656975,84.757393 67.636597,85.054749 
	C67.813339,85.049927 67.990082,85.045090 68.491074,85.280136 
	C68.879242,85.679031 68.943146,85.838043 69.007057,85.997055 
	C68.676903,86.447853 68.346741,86.898659 67.654816,87.631134 
	C67.008804,88.035530 66.838715,88.249138 66.782753,88.553619 
z"/>
<path fill="#907D56" opacity="1.000000" stroke="none" 
	d="
M55.925201,87.272209 
	C58.035313,88.061646 60.145420,88.851082 62.577454,89.759598 
	C62.445126,90.525146 61.990868,91.171631 61.280556,91.987000 
	C60.281151,92.077950 59.537796,92.000015 58.225014,91.661926 
	C57.098495,91.277222 56.541409,91.152687 55.984318,91.028152 
	C55.984318,91.028152 56.041634,90.962074 56.037022,90.561310 
	C55.996674,89.197769 55.960938,88.234993 55.925201,87.272209 
z"/>
<path fill="#C0A769" opacity="1.000000" stroke="none" 
	d="
M48.003460,95.666595 
	C47.875446,95.441261 47.748833,94.883163 47.814411,94.163940 
	C48.006020,94.446495 48.005436,94.890167 48.003460,95.666595 
z"/>
<path fill="#A79465" opacity="1.000000" stroke="none" 
	d="
M55.580837,87.167480 
	C55.960938,88.234993 55.996674,89.197769 56.053879,90.520958 
	C55.614571,90.922783 55.153793,90.964203 54.346291,91.006912 
	C53.957787,90.026985 53.916000,89.045792 53.858047,87.699951 
	C54.306751,87.244453 54.771610,87.153603 55.580837,87.167480 
z"/>
<path fill="#C4AE76" opacity="1.000000" stroke="none" 
	d="
M56.038055,91.301704 
	C56.541409,91.152687 57.098495,91.277222 57.854805,91.612061 
	C57.399948,91.739990 56.745872,91.657623 56.038055,91.301704 
z"/>
<path fill="#DDBC7A" opacity="1.000000" stroke="none" 
	d="
M54.883968,54.012814 
	C54.883968,54.012814 55.032539,53.603397 55.042801,53.385868 
	C61.373699,49.647186 59.467926,56.008167 61.096252,58.556850 
	C60.101398,59.715893 59.069538,60.486286 57.727184,61.757576 
	C56.615662,62.509697 55.814625,62.760918 54.679920,62.963249 
	C53.511486,62.588886 52.676720,62.263412 51.961487,61.641132 
	C52.747154,59.889790 53.413280,58.435253 54.123970,56.660103 
	C54.407009,55.563927 54.645489,54.788372 54.883968,54.012814 
z"/>
<path fill="#DAC692" opacity="1.000000" stroke="none" 
	d="
M55.013588,63.012142 
	C55.814625,62.760918 56.615662,62.509697 57.705345,62.125854 
	C58.498573,62.255360 59.003151,62.517479 59.764091,62.904411 
	C60.266235,64.202545 60.512012,65.375862 60.764420,66.885330 
	C60.771049,67.221474 60.500546,67.118233 60.065243,67.089371 
	C58.762676,67.032784 57.895409,67.005051 56.882469,66.722725 
	C56.149616,65.962311 55.562435,65.456497 54.981220,64.627495 
	C54.995991,63.873589 55.004791,63.442867 55.013588,63.012142 
z"/>
<path fill="#413526" opacity="1.000000" stroke="none" 
	d="
M60.500546,67.118233 
	C60.500546,67.118233 60.771049,67.221474 60.892677,67.142944 
	C61.014305,67.064407 61.496376,67.151268 61.751736,67.322113 
	C62.007095,67.492958 61.978188,67.939766 61.984932,68.196442 
	C61.168499,68.976257 60.345318,69.499390 59.491547,69.712166 
	C59.807484,68.640610 60.154015,67.879425 60.500546,67.118233 
z"/>
<path fill="#948C71" opacity="1.000000" stroke="none" 
	d="
M61.990967,67.269669 
	C63.137051,66.754974 64.299263,66.463562 65.725159,66.524490 
	C65.988846,66.876831 65.947701,67.279182 65.602875,67.241745 
	C64.807495,67.294365 64.356949,67.384430 63.564880,67.443192 
	C62.808300,67.587852 62.393242,67.763809 61.978188,67.939766 
	C61.978188,67.939766 62.007095,67.492958 61.990967,67.269669 
z"/>
<path fill="#666154" opacity="1.000000" stroke="none" 
	d="
M66.011826,66.675911 
	C66.468422,66.599220 66.902046,66.723450 67.665909,67.262558 
	C68.010323,68.094505 68.024490,68.511581 67.700478,68.976257 
	C66.907791,69.013550 66.453285,69.003220 65.975677,68.707306 
	C65.950958,68.040871 65.949326,67.660027 65.947701,67.279182 
	C65.947701,67.279182 65.988846,66.876831 66.011826,66.675911 
z"/>
<path fill="#7E7968" opacity="1.000000" stroke="none" 
	d="
M68.038658,68.928650 
	C68.024490,68.511581 68.010323,68.094505 67.987930,67.365204 
	C68.437088,67.029144 68.894470,67.005302 69.694946,66.959778 
	C70.093262,67.132179 70.148483,67.326271 70.108269,67.807953 
	C70.092743,68.367859 70.172653,68.640167 69.877808,69.111679 
	C68.989273,69.259415 68.475487,69.207939 67.979424,69.098999 
	C67.997147,69.041527 68.038658,68.928650 68.038658,68.928650 
z"/>
<path fill="#12100B" opacity="1.000000" stroke="none" 
	d="
M54.079407,56.980721 
	C53.413280,58.435253 52.747154,59.889790 51.700668,61.724899 
	C50.556805,62.108189 49.793297,62.110905 49.029785,62.113617 
	C49.835140,60.386101 50.640495,58.658585 51.308826,57.224991 
	C47.836304,56.046181 44.489353,54.910000 41.450027,53.387321 
	C42.849602,52.288254 43.937130,51.568783 45.034821,50.865154 
	C46.024761,50.230602 47.025822,49.613388 48.021980,48.988525 
	C48.021980,48.988529 48.002506,49.002975 48.002323,49.375118 
	C48.181725,51.197311 48.361309,52.647358 48.540894,54.097408 
	C48.890388,54.080414 49.239880,54.063419 49.589371,54.046425 
	C49.734894,53.023106 49.880413,51.999786 50.025936,50.976467 
	C50.982864,51.763767 51.939789,52.551067 52.958755,54.003784 
	C53.373665,55.439709 53.726536,56.210213 54.079407,56.980721 
z"/>
<path fill="#D6BD82" opacity="1.000000" stroke="none" 
	d="
M48.886177,62.408005 
	C49.793297,62.110905 50.556805,62.108189 51.581135,62.021709 
	C52.676720,62.263412 53.511486,62.588886 54.679916,62.963249 
	C55.004791,63.442867 54.995991,63.873589 54.739746,64.646065 
	C54.492298,64.987816 54.008701,65.021790 53.667976,65.072220 
	C52.236984,66.743744 51.146713,68.364845 49.913380,70.192894 
	C49.508629,70.606453 49.246941,70.813057 48.741383,70.919357 
	C47.666069,70.881508 46.834629,70.943954 46.003181,71.006409 
	C45.734760,69.153534 45.466339,67.300659 45.071060,65.155830 
	C46.210327,64.143379 47.476448,63.422886 48.886177,62.408005 
z"/>
<path fill="#070604" opacity="1.000000" stroke="none" 
	d="
M47.945412,48.616135 
	C47.025822,49.613388 46.024761,50.230602 45.034821,50.865154 
	C43.937130,51.568783 42.849602,52.288254 41.369072,53.010956 
	C40.834743,52.728962 40.633862,52.481609 40.141033,51.831463 
	C39.262966,50.595100 38.621712,49.806293 37.980461,49.017490 
	C37.975174,48.849815 37.969887,48.682144 37.958191,48.263069 
	C38.541306,47.520241 39.130829,47.028816 39.858086,46.281761 
	C42.620163,46.765335 45.244503,47.504539 47.945412,48.616135 
z"/>
<path fill="#12100B" opacity="1.000000" stroke="none" 
	d="
M37.996986,49.358658 
	C38.621712,49.806293 39.262966,50.595100 39.938519,51.701744 
	C39.319717,51.246334 38.666615,50.473080 37.996986,49.358658 
z"/>
<path fill="#070604" opacity="1.000000" stroke="none" 
	d="
M49.799698,50.802544 
	C49.880413,51.999786 49.734894,53.023106 49.589371,54.046425 
	C49.239880,54.063419 48.890388,54.080414 48.540894,54.097408 
	C48.361309,52.647358 48.181725,51.197311 48.005959,49.364510 
	C48.531010,49.530712 49.052235,50.079670 49.799698,50.802544 
z"/>
<path fill="#080704" opacity="1.000000" stroke="none" 
	d="
M54.123970,56.660103 
	C53.726536,56.210213 53.373665,55.439709 53.010475,54.334839 
	C53.418880,53.996304 53.837605,53.992130 54.570152,54.000385 
	C54.645489,54.788372 54.407009,55.563927 54.123970,56.660103 
z"/>
<path fill="#211F18" opacity="1.000000" stroke="none" 
	d="
M65.998779,68.992897 
	C66.453285,69.003220 66.907791,69.013550 67.700478,68.976257 
	C68.038658,68.928650 67.997147,69.041527 68.188904,69.297958 
	C68.918587,69.767319 69.456520,69.980255 69.994453,70.193199 
	C69.995857,71.207588 69.997261,72.221985 69.998489,73.616661 
	C69.998322,73.996948 70.000000,74.000000 69.665924,74.044800 
	C67.390190,73.679749 65.448524,73.269897 63.496964,72.857948 
	C63.649715,74.231590 63.804466,75.623238 63.597267,76.831909 
	C62.497913,76.311836 61.760517,75.974739 60.992294,75.397720 
	C60.298126,74.453400 59.634785,73.748985 58.967472,72.747826 
	C58.867168,72.278275 58.770828,72.105469 58.831001,71.620697 
	C59.165726,70.879997 59.343933,70.451263 59.522141,70.022530 
	C60.345318,69.499390 61.168499,68.976257 61.984932,68.196442 
	C62.393242,67.763809 62.808300,67.587852 63.659485,67.706497 
	C64.730003,68.331703 65.364388,68.662300 65.998779,68.992897 
z"/>
<path fill="#413526" opacity="1.000000" stroke="none" 
	d="
M70.030777,70.083313 
	C69.456520,69.980255 68.918587,69.767319 68.171173,69.355423 
	C68.475487,69.207939 68.989273,69.259415 69.827187,69.534348 
	C70.151314,69.757805 70.067101,69.973419 70.030777,70.083313 
z"/>
<path fill="#242119" opacity="1.000000" stroke="none" 
	d="
M63.959221,77.014885 
	C63.804466,75.623238 63.649715,74.231590 63.496964,72.857948 
	C65.448524,73.269897 67.390190,73.679749 69.664459,74.044067 
	C69.809067,75.478302 69.621056,76.958084 69.627701,78.682907 
	C69.408478,79.262840 68.994583,79.597740 67.932663,79.967102 
	C66.528534,79.993095 65.772415,79.984634 64.781647,79.950073 
	C64.546989,79.923988 64.077087,79.877426 64.057320,79.520981 
	C64.011436,78.447983 63.985329,77.731438 63.959221,77.014885 
z"/>
<path fill="#514A3A" opacity="1.000000" stroke="none" 
	d="
M64.077087,79.877426 
	C64.077087,79.877426 64.546989,79.923988 64.970932,80.183746 
	C65.948891,80.662277 66.502914,80.881058 67.056931,81.099838 
	C66.779480,81.566292 66.502029,82.032753 65.866600,82.729279 
	C65.508621,82.959343 65.019585,82.893982 64.852203,82.724655 
	C64.118683,82.623840 63.552540,82.692360 62.597500,82.805283 
	C61.167252,82.870293 60.125896,82.890892 58.925266,82.707733 
	C58.487091,82.302437 58.208195,82.100906 57.953308,81.593849 
	C57.999786,80.879959 58.022255,80.471588 58.103439,79.757904 
	C58.162758,79.245308 58.163349,79.038033 58.163048,78.670517 
	C58.162159,78.510277 58.120548,78.192505 58.325542,78.107208 
	C58.530537,78.021912 58.949043,77.873451 59.077232,78.120789 
	C59.503902,78.584518 59.802387,78.800919 60.378830,79.051506 
	C61.796894,79.349602 62.936989,79.613518 64.077087,79.877426 
z"/>
<path fill="#17130D" opacity="1.000000" stroke="none" 
	d="
M65.019585,82.893982 
	C65.019585,82.893982 65.508621,82.959343 65.754715,82.976501 
	C66.537834,83.496765 67.074867,83.999878 67.624252,84.778870 
	C64.656975,84.757393 61.677349,84.460030 58.473038,83.878334 
	C58.527084,83.366501 58.805813,83.139000 59.084545,82.911499 
	C60.125896,82.890892 61.167252,82.870293 62.932007,82.872772 
	C64.110138,82.895233 64.564857,82.894608 65.019585,82.893982 
z"/>
<path fill="#3D3326" opacity="1.000000" stroke="none" 
	d="
M67.253311,80.953308 
	C66.502914,80.881058 65.948891,80.662277 65.205582,80.209831 
	C65.772415,79.984634 66.528534,79.993095 67.663422,80.019043 
	C67.906120,80.340530 67.708611,80.597282 67.253311,80.953308 
z"/>
<path fill="#897855" opacity="1.000000" stroke="none" 
	d="
M69.277344,85.870743 
	C68.943146,85.838043 68.879242,85.679031 68.756088,85.269585 
	C68.989258,85.033119 69.277847,85.074028 69.760231,85.226501 
	C69.821106,85.455559 69.684372,85.599998 69.277344,85.870743 
z"/>
<path fill="#654827" opacity="1.000000" stroke="none" 
	d="
M22.249428,24.915934 
	C22.212740,24.485012 22.176050,24.054089 22.103729,23.300549 
	C22.068094,22.977930 22.166838,22.554600 22.350590,22.177057 
	C22.740492,21.561626 22.885597,21.290998 22.969656,20.987627 
	C23.852142,20.184248 24.734629,19.380869 25.813171,18.778389 
	C25.364391,21.434711 24.719553,23.890137 23.984226,26.736362 
	C23.599895,26.972576 23.359169,26.758314 22.987957,26.053719 
	C22.672937,25.345306 22.487963,25.109598 22.249428,24.915934 
z"/>
<path fill="#654827" opacity="1.000000" stroke="none" 
	d="
M26.138884,19.186409 
	C26.326277,19.070658 26.600502,19.230242 26.955532,19.668739 
	C26.756306,19.799921 26.486097,19.637953 26.138884,19.186409 
z"/>
<path fill="#8C623A" opacity="1.000000" stroke="none" 
	d="
M22.173958,25.178696 
	C22.487963,25.109598 22.672937,25.345306 22.868294,25.841499 
	C22.932234,26.059942 22.480394,26.022343 22.254820,26.003088 
	C22.052328,25.803041 22.075409,25.622252 22.173958,25.178696 
z"/>
<path fill="#8C623A" opacity="1.000000" stroke="none" 
	d="
M22.731686,20.994591 
	C22.885597,21.290998 22.740492,21.561626 22.369204,21.960510 
	C22.162159,21.939426 22.120251,21.757347 22.048111,21.296883 
	C22.017879,21.018494 22.493717,21.001554 22.731686,20.994591 
z"/>
<path fill="#897855" opacity="1.000000" stroke="none" 
	d="
M67.022781,88.578362 
	C66.838715,88.249138 67.008804,88.035530 67.500267,87.869362 
	C67.766273,88.203506 67.618050,88.462570 67.022781,88.578362 
z"/>
<path fill="#BCA770" opacity="1.000000" stroke="none" 
	d="
M45.872555,71.206528 
	C46.834629,70.943954 47.666069,70.881508 48.780945,71.234863 
	C49.395412,72.428329 49.726440,73.205994 50.089363,74.326172 
	C50.420147,75.770958 50.719036,76.873222 50.954414,78.341133 
	C50.529198,79.624962 50.167500,80.543144 49.483444,81.359970 
	C48.498924,81.131920 47.836765,81.005241 46.992191,80.590759 
	C45.440239,79.493217 44.070702,78.683479 42.701160,77.873749 
	C42.489864,78.127518 42.278568,78.381294 42.067268,78.635063 
	C42.409100,79.404091 42.750931,80.173111 43.065769,81.286743 
	C43.066372,82.316010 43.093964,83.000671 43.121552,83.685333 
	C42.416443,83.576141 41.281040,83.698189 41.077499,83.319450 
	C39.935551,81.194534 39.018284,78.948875 38.315460,76.204224 
	C40.738010,74.443329 42.869411,73.222641 45.000813,72.001945 
	C45.289352,71.855179 45.536392,71.656738 45.872555,71.206528 
z"/>
<path fill="#C6B586" opacity="1.000000" stroke="none" 
	d="
M44.588127,72.000267 
	C42.869411,73.222641 40.738010,74.443329 38.303738,75.834488 
	C36.367561,74.235397 34.734257,72.465836 33.038216,70.368240 
	C36.708801,70.693001 40.442123,71.345795 44.588127,72.000267 
z"/>
<path fill="#322C23" opacity="1.000000" stroke="none" 
	d="
M57.027618,84.068481 
	C56.872463,84.339767 56.668835,84.567757 55.918655,84.919159 
	C54.977619,85.458313 54.534653,85.830750 54.091690,86.203186 
	C54.091686,86.203186 54.067131,86.351837 54.086559,86.423744 
	C53.298733,86.601425 52.491478,86.707191 51.230007,86.697250 
	C50.775787,86.581543 50.639797,86.566589 50.604080,86.501450 
	C50.568363,86.436302 50.421307,86.457550 50.385063,86.170250 
	C50.112740,85.355713 49.876663,84.828476 49.760105,83.975845 
	C49.928303,83.425934 49.976978,83.201416 50.095200,82.918762 
	C50.164742,82.860626 50.306198,82.747238 50.632217,82.769852 
	C51.605286,82.732567 52.252331,82.672668 53.235634,82.761513 
	C54.057030,82.980545 54.542168,83.050835 55.228348,83.321152 
	C55.962132,83.703621 56.494873,83.886055 57.027618,84.068481 
z"/>
<path fill="#9C8556" opacity="1.000000" stroke="none" 
	d="
M49.640587,84.301239 
	C49.876663,84.828476 50.112740,85.355713 49.978535,86.317184 
	C49.050007,86.873024 48.491760,86.994637 47.933517,87.116241 
	C46.769394,86.234016 45.605270,85.351791 44.665962,84.205231 
	C45.907013,83.981941 46.923248,84.022987 48.225395,84.096870 
	C48.887733,84.186882 49.264160,84.244057 49.640587,84.301239 
z"/>
<path fill="#7D6945" opacity="1.000000" stroke="none" 
	d="
M47.939487,84.064041 
	C46.923248,84.022987 45.907013,83.981941 44.513348,83.925789 
	C43.965656,83.878082 43.795391,83.845474 43.373337,83.749100 
	C43.093964,83.000671 43.066372,82.316010 43.369003,81.330490 
	C44.439629,81.380295 45.180027,81.730957 46.137741,82.270821 
	C46.891769,82.662857 47.428482,82.865692 47.963230,83.317520 
	C47.961269,83.566513 47.939487,84.064041 47.939487,84.064041 
z"/>
<path fill="#B69F64" opacity="1.000000" stroke="none" 
	d="
M47.997536,87.374886 
	C48.491760,86.994637 49.050007,86.873024 50.014778,86.604477 
	C50.421307,86.457550 50.568363,86.436302 50.409161,86.859016 
	C50.166294,87.536842 50.082630,87.791954 49.998970,88.047073 
	C49.353165,87.909218 48.707359,87.771370 47.997536,87.374886 
z"/>
<path fill="#907D56" opacity="1.000000" stroke="none" 
	d="
M50.230141,87.880920 
	C50.082630,87.791954 50.166294,87.536842 50.444878,86.924164 
	C50.639797,86.566589 50.775787,86.581543 50.819649,86.630814 
	C50.729446,87.024986 50.595379,87.369873 50.230141,87.880920 
z"/>
<path fill="#242119" opacity="1.000000" stroke="none" 
	d="
M57.255898,84.059700 
	C56.494873,83.886055 55.962132,83.703621 55.328754,83.251236 
	C55.228123,82.981285 55.457458,82.896713 55.439804,82.888245 
	C55.422146,82.879784 55.417313,82.889809 55.831497,82.713326 
	C56.806892,82.324356 57.368095,82.111870 57.929298,81.899376 
	C58.208195,82.100906 58.487091,82.302437 58.925266,82.707733 
	C58.805813,83.139000 58.527084,83.366501 58.094673,83.818054 
	C57.940990,84.042107 57.484180,84.050919 57.255898,84.059700 
z"/>
<path fill="#493E2F" opacity="1.000000" stroke="none" 
	d="
M54.367393,86.107849 
	C54.534653,85.830750 54.977619,85.458313 55.721329,85.038551 
	C55.562416,85.331657 55.102757,85.672089 54.367393,86.107849 
z"/>
<path fill="#CBC8AC" opacity="1.000000" stroke="none" 
	d="
M59.491547,69.712166 
	C59.343933,70.451263 59.165726,70.879997 58.484398,71.600998 
	C56.649937,71.592072 55.318592,71.290871 54.126602,70.725174 
	C54.833832,69.649803 55.401707,68.838921 56.182598,67.892929 
	C56.606457,67.497643 56.817299,67.237480 57.028145,66.977318 
	C57.895409,67.005051 58.762676,67.032784 60.065243,67.089371 
	C60.154015,67.879425 59.807484,68.640610 59.491547,69.712166 
z"/>
<path fill="#E4D3A2" opacity="1.000000" stroke="none" 
	d="
M56.882469,66.722725 
	C56.817299,67.237480 56.606457,67.497643 55.914299,67.727036 
	C54.958221,66.804771 54.483463,65.913284 54.008701,65.021790 
	C54.008701,65.021790 54.492298,64.987816 54.733772,64.969246 
	C55.562435,65.456497 56.149616,65.962311 56.882469,66.722725 
z"/>
<path fill="#413526" opacity="1.000000" stroke="none" 
	d="
M65.975677,68.707306 
	C65.364388,68.662300 64.730003,68.331703 64.001007,67.737801 
	C64.356949,67.384430 64.807495,67.294365 65.602875,67.241745 
	C65.949326,67.660027 65.950958,68.040871 65.975677,68.707306 
z"/>
<path fill="#D6C696" opacity="1.000000" stroke="none" 
	d="
M53.667976,65.072220 
	C54.483463,65.913284 54.958221,66.804771 55.701283,67.862152 
	C55.401707,68.838921 54.833832,69.649803 53.793861,70.720673 
	C52.879803,70.937553 52.437836,70.894432 51.800381,70.658417 
	C51.088741,70.305664 50.572594,70.145805 50.056442,69.985947 
	C51.146713,68.364845 52.236984,66.743744 53.667976,65.072220 
z"/>
<path fill="#CEC299" opacity="1.000000" stroke="none" 
	d="
M49.913383,70.192894 
	C50.572594,70.145805 51.088741,70.305664 51.942074,70.976364 
	C52.849655,72.693436 53.420055,73.899658 53.744110,75.066238 
	C53.497761,75.026588 53.005054,74.948189 52.780125,74.715729 
	C51.722622,74.316727 50.890045,74.150192 50.057472,73.983650 
	C49.726440,73.205994 49.395412,72.428329 49.024818,71.335175 
	C49.246941,70.813057 49.508629,70.606453 49.913383,70.192894 
z"/>
<path fill="#B0AB92" opacity="1.000000" stroke="none" 
	d="
M53.990456,75.105888 
	C53.420055,73.899658 52.849655,72.693436 52.137566,71.169250 
	C52.437836,70.894432 52.879803,70.937553 53.654510,70.985168 
	C55.318592,71.290871 56.649937,71.592072 58.327881,71.912964 
	C58.770828,72.105469 58.867168,72.278275 58.894073,73.009285 
	C58.838703,73.928223 58.852760,74.288956 58.834930,74.702087 
	C58.803043,74.754494 58.766014,74.871468 58.542786,74.932648 
	C58.444546,75.708702 58.569534,76.423561 58.729050,77.332260 
	C58.763573,77.526093 58.949043,77.873451 58.949043,77.873451 
	C58.949043,77.873451 58.530537,78.021912 57.996399,78.016655 
	C57.236252,77.992989 57.010246,77.974586 56.635117,77.978172 
	C56.485989,78.000160 56.186100,78.031013 56.012287,77.791260 
	C55.499352,77.357300 55.160229,77.163078 54.633575,76.981384 
	C54.446045,76.993919 54.070831,77.016571 54.061745,76.697380 
	C54.031929,75.954086 54.011192,75.529991 53.990456,75.105888 
z"/>
<path fill="#3D3326" opacity="1.000000" stroke="none" 
	d="
M64.057320,79.520981 
	C62.936989,79.613518 61.796894,79.349602 60.406090,78.646744 
	C60.079834,77.398178 60.004280,76.588577 60.113647,75.740707 
	C60.298569,75.702446 60.656506,75.621086 60.656506,75.621086 
	C60.656506,75.621086 61.023121,75.637634 61.023121,75.637634 
	C61.760517,75.974739 62.497913,76.311836 63.597263,76.831909 
	C63.985329,77.731438 64.011436,78.447983 64.057320,79.520981 
z"/>
<path fill="#8F8A76" opacity="1.000000" stroke="none" 
	d="
M60.992294,75.397720 
	C61.023121,75.637634 60.656506,75.621086 60.656506,75.621086 
	C60.656506,75.621086 60.298569,75.702446 59.975006,75.524399 
	C59.389904,75.114120 59.128361,74.881905 58.866821,74.649689 
	C58.852760,74.288956 58.838703,73.928223 58.898041,73.306030 
	C59.634785,73.748985 60.298126,74.453400 60.992294,75.397720 
z"/>
<path fill="#786B50" opacity="1.000000" stroke="none" 
	d="
M57.953308,81.593849 
	C57.368095,82.111870 56.806892,82.324356 55.858162,82.651558 
	C55.470634,82.766273 55.550110,82.659012 55.366730,82.455742 
	C55.060329,82.117645 54.937317,81.982819 54.917717,81.557060 
	C55.625195,80.757706 56.229263,80.249283 57.135170,79.825233 
	C57.639580,79.960808 57.842148,80.012016 58.044720,80.063225 
	C58.022255,80.471588 57.999786,80.879959 57.953308,81.593849 
z"/>
<path fill="#746E5E" opacity="1.000000" stroke="none" 
	d="
M58.834930,74.702087 
	C59.128361,74.881905 59.389904,75.114120 59.790085,75.562653 
	C60.004280,76.588577 60.079834,77.398178 60.128128,78.612549 
	C59.802387,78.800919 59.503902,78.584518 59.077232,78.120789 
	C58.949043,77.873451 58.763573,77.526093 58.814590,76.958321 
	C58.832409,75.884186 58.799210,75.377831 58.766014,74.871468 
	C58.766014,74.871468 58.803043,74.754494 58.834930,74.702087 
z"/>
<path fill="#413526" opacity="1.000000" stroke="none" 
	d="
M64.852203,82.724655 
	C64.564857,82.894608 64.110138,82.895233 63.320904,82.828369 
	C63.552540,82.692360 64.118683,82.623840 64.852203,82.724655 
z"/>
<path fill="#988A67" opacity="1.000000" stroke="none" 
	d="
M58.103439,79.757904 
	C57.842148,80.012016 57.639580,79.960808 57.168968,79.654900 
	C56.900932,79.400192 56.971981,79.056305 57.272141,79.011368 
	C57.769508,78.921211 57.966721,78.875984 58.163937,78.830757 
	C58.163349,79.038033 58.162758,79.245308 58.103439,79.757904 
z"/>
<path fill="#746E5E" opacity="1.000000" stroke="none" 
	d="
M58.163048,78.670517 
	C57.966721,78.875984 57.769508,78.921211 57.238708,78.733734 
	C56.864826,78.319427 56.824535,78.137810 56.784241,77.956184 
	C57.010246,77.974586 57.236252,77.992989 57.791405,78.101952 
	C58.120548,78.192505 58.162159,78.510277 58.163048,78.670517 
z"/>
<path fill="#B4AA88" opacity="1.000000" stroke="none" 
	d="
M56.635117,77.978172 
	C56.824535,78.137810 56.864826,78.319427 56.938549,78.778671 
	C56.971981,79.056305 56.900932,79.400192 56.867130,79.570526 
	C56.229263,80.249283 55.625195,80.757706 54.729542,81.548882 
	C54.437954,81.831635 54.061050,81.790474 54.044601,81.444031 
	C53.024742,80.056885 52.021336,79.016190 51.017925,77.975494 
	C50.719036,76.873222 50.420147,75.770958 50.089363,74.326172 
	C50.890045,74.150192 51.722622,74.316727 52.813580,75.020432 
	C53.404919,76.043930 53.737873,76.530251 54.070831,77.016571 
	C54.070831,77.016571 54.446045,76.993919 54.816238,77.213043 
	C55.519657,77.631783 55.852879,77.831398 56.186100,78.031013 
	C56.186100,78.031013 56.485989,78.000160 56.635117,77.978172 
z"/>
<path fill="#AF9E6F" opacity="1.000000" stroke="none" 
	d="
M50.954414,78.341133 
	C52.021336,79.016190 53.024742,80.056885 53.850998,81.584641 
	C53.392204,82.218445 53.134048,82.398796 52.899380,82.612770 
	C52.252331,82.672668 51.605286,82.732567 50.568871,82.547913 
	C50.006996,82.043968 49.882423,81.763290 49.805798,81.461334 
	C50.167500,80.543144 50.529198,79.624962 50.954414,78.341133 
z"/>
<path fill="#493E2F" opacity="1.000000" stroke="none" 
	d="
M45.920429,82.081619 
	C45.180027,81.730957 44.439629,81.380295 43.395996,80.985886 
	C42.750931,80.173111 42.409100,79.404091 42.067268,78.635063 
	C42.278568,78.381294 42.489864,78.127518 42.701160,77.873749 
	C44.070702,78.683479 45.440239,79.493217 46.743137,80.746330 
	C46.424473,81.487015 46.172451,81.784317 45.920429,82.081619 
z"/>
<path fill="#322C23" opacity="1.000000" stroke="none" 
	d="
M46.137741,82.270821 
	C46.172451,81.784317 46.424473,81.487015 46.925549,81.034142 
	C47.836765,81.005241 48.498924,81.131920 49.483444,81.359970 
	C49.882423,81.763290 50.006996,82.043968 50.242851,82.525299 
	C50.306198,82.747238 50.164742,82.860626 49.751835,82.936630 
	C48.881016,83.031265 48.423103,83.049896 47.965191,83.068527 
	C47.428482,82.865692 46.891769,82.662857 46.137741,82.270821 
z"/>
<path fill="#5A5344" opacity="1.000000" stroke="none" 
	d="
M47.963230,83.317520 
	C48.423103,83.049896 48.881016,83.031265 49.682293,82.994766 
	C49.976978,83.201416 49.928303,83.425934 49.760105,83.975845 
	C49.264160,84.244057 48.887733,84.186882 48.225395,84.096870 
	C47.939487,84.064041 47.961269,83.566513 47.963230,83.317520 
z"/>
<path fill="#746E5E" opacity="1.000000" stroke="none" 
	d="
M53.235634,82.761513 
	C53.134048,82.398796 53.392204,82.218445 53.867447,81.931091 
	C54.061050,81.790474 54.437954,81.831635 54.626129,81.839813 
	C54.937317,81.982819 55.060329,82.117645 55.346664,82.515663 
	C55.509979,82.778854 55.457458,82.896713 55.457458,82.896713 
	C55.457458,82.896713 55.228123,82.981285 55.127716,83.051201 
	C54.542168,83.050835 54.057030,82.980545 53.235634,82.761513 
z"/>
<path fill="#17130D" opacity="1.000000" stroke="none" 
	d="
M55.439804,82.888245 
	C55.457458,82.896713 55.509979,82.778854 55.530045,82.718933 
	C55.550110,82.659012 55.470634,82.766273 55.443974,82.828041 
	C55.417313,82.889809 55.422146,82.879784 55.439804,82.888245 
z"/>
<path fill="#9E967C" opacity="1.000000" stroke="none" 
	d="
M54.061745,76.697380 
	C53.737873,76.530251 53.404919,76.043930 53.038509,75.252899 
	C53.005054,74.948189 53.497761,75.026588 53.744110,75.066238 
	C54.011192,75.529991 54.031929,75.954086 54.061745,76.697380 
z"/>
<path fill="#8F8A76" opacity="1.000000" stroke="none" 
	d="
M58.542786,74.932648 
	C58.799210,75.377831 58.832409,75.884186 58.780064,76.764488 
	C58.569534,76.423561 58.444546,75.708702 58.542786,74.932648 
z"/>
<path fill="#8F8A76" opacity="1.000000" stroke="none" 
	d="
M56.012287,77.791260 
	C55.852879,77.831398 55.519657,77.631783 55.003769,77.200516 
	C55.160229,77.163078 55.499352,77.357300 56.012287,77.791260 
z"/>
</svg>